<svg width="602" height="551" viewBox="0 0 602 551" fill="none" xmlns="http://www.w3.org/2000/svg">
<path d="M38.8536 463.662H25.9937" stroke="#263238" stroke-width="1.1133" stroke-miterlimit="10"/>
<path d="M559.75 463.662H59.1943" stroke="#263238" stroke-width="1.1133" stroke-miterlimit="10"/>
<path d="M371.418 518.927C394.93 518.927 413.991 513.538 413.991 506.889C413.991 500.241 394.93 494.852 371.418 494.852C347.906 494.852 328.846 500.241 328.846 506.889C328.846 513.538 347.906 518.927 371.418 518.927Z" fill="#263238"/>
<path d="M151.385 534.234C107.075 534.234 100.533 527.654 99.889 522.34C99.7427 521.234 99.8488 520.108 100.199 519.05C100.549 517.993 101.134 517.034 101.906 516.249C113.842 503.376 182.624 508.819 277.798 516.35C291.079 517.401 304.807 518.481 318.886 519.561C415.055 526.905 453.775 525.955 461.774 516.019C463.399 513.989 463.735 511.454 462.838 508.027C459.028 493.7 408.093 493.628 388.803 494.751C388.361 494.775 387.929 494.619 387.598 494.317C387.268 494.015 387.067 493.592 387.038 493.138C387.024 492.914 387.055 492.689 387.127 492.477C387.198 492.265 387.311 492.069 387.457 491.902C387.603 491.734 387.779 491.598 387.977 491.502C388.174 491.405 388.388 491.349 388.607 491.338C395.989 490.892 460.849 487.537 466.046 507.178C467.237 511.699 466.691 515.313 464.337 518.251C455.358 529.454 418.599 530.649 318.648 523.017C304.555 521.937 290.827 520.857 277.546 519.806C186.827 512.606 115.158 506.947 104.316 518.654C103.887 519.072 103.562 519.59 103.367 520.163C103.172 520.737 103.113 521.35 103.195 521.952C103.601 525.35 111.6 532.953 176.04 530.303C212.084 528.863 248.296 524.788 248.661 524.745C249.082 524.728 249.495 524.875 249.815 525.158C250.135 525.441 250.339 525.838 250.385 526.27C250.431 526.701 250.316 527.134 250.064 527.482C249.812 527.83 249.44 528.066 249.025 528.143C248.661 528.143 212.336 532.233 176.18 533.716C166.878 534.062 158.641 534.234 151.385 534.234Z" fill="white" stroke="#263238" stroke-width="1.1133" stroke-miterlimit="10"/>
<path d="M355.588 517.459C383.293 517.459 405.753 494.373 405.753 465.894C405.753 437.416 383.293 414.33 355.588 414.33C327.883 414.33 305.423 437.416 305.423 465.894C305.423 494.373 327.883 517.459 355.588 517.459Z" fill="white"/>
<path d="M355.588 517.459C364.717 517.465 373.675 514.91 381.495 510.068C389.315 505.227 395.702 498.283 399.966 489.986C404.229 481.689 406.209 472.352 405.691 462.984C405.173 453.615 402.177 444.57 397.026 436.822C396.48 459.285 384.418 492.447 321.688 503.852C330.922 512.607 343.026 517.465 355.588 517.459V517.459Z" fill="#E23C40"/>
<path opacity="0.3" d="M355.588 517.459C364.717 517.465 373.675 514.91 381.495 510.068C389.315 505.227 395.702 498.283 399.966 489.986C404.229 481.689 406.209 472.352 405.691 462.984C405.173 453.615 402.177 444.57 397.026 436.822C396.48 459.285 384.418 492.447 321.688 503.852C330.922 512.607 343.026 517.465 355.588 517.459V517.459Z" fill="white"/>
<path d="M380.271 486.111C371.326 477.166 360.463 470.502 348.556 466.658C360.463 470.502 371.326 477.166 380.271 486.111H382.933C388.837 480.095 393.922 473.284 398.048 465.866C374.556 440.35 351.708 442.956 351.708 442.956C351.708 442.956 374.626 440.35 398.118 465.894C399.407 463.519 400.486 461.287 401.368 459.228C391.59 445.145 374.752 435.54 365.716 434.101L363.615 433.582C360.377 432.977 357.063 432.928 353.809 433.438C357.063 432.928 360.377 432.977 363.615 433.582L369.597 416.303C366.77 415.472 363.878 414.899 360.953 414.589C357.073 421.026 347.085 441.588 347.085 482.382C347.085 441.588 357.073 421.026 360.953 414.589C359.272 414.431 357.591 414.33 355.868 414.33C353.972 414.336 352.078 414.451 350.195 414.676C344.283 423.863 332.978 445.562 332.222 478.134C343.947 482.526 359.637 485.809 380.271 486.111ZM391.604 475.614C371.628 455.599 349.578 454.548 349.578 454.548C349.578 454.548 371.628 455.599 391.604 475.614V475.614Z" stroke="#263238" stroke-width="1.1133" stroke-linecap="round" stroke-linejoin="round"/>
<path d="M332.166 478.22C332.922 445.649 344.227 423.949 350.139 414.762C345.513 415.295 340.983 416.487 336.677 418.304C326.06 434.314 320.062 453.083 319.376 472.446C323.49 474.703 327.765 476.634 332.166 478.22Z" stroke="#263238" stroke-width="1.1133" stroke-linecap="round" stroke-linejoin="round"/>
<path d="M336.677 418.261C328.013 421.932 320.521 428.02 315.046 435.836C309.57 443.652 306.33 452.886 305.689 462.496C309.814 466.394 314.415 469.725 319.376 472.403C320.062 453.04 326.06 434.271 336.677 418.261V418.261Z" stroke="#263238" stroke-width="1.1133" stroke-linecap="round" stroke-linejoin="round"/>
<path d="M401.298 459.228C402.39 456.749 403.326 454.199 404.1 451.597C402.006 444.252 398.356 437.476 393.411 431.754L389.531 445.059L393.341 431.754C390.247 428.186 386.688 425.075 382.765 422.51L378.492 438.939L382.793 422.582C378.691 419.885 374.226 417.823 369.541 416.462L363.559 433.741C372.721 435.095 386.883 440.639 401.298 459.228Z" stroke="#263238" stroke-width="1.1133" stroke-linecap="round" stroke-linejoin="round"/>
<path d="M406.019 468.328C406.019 467.579 406.019 466.888 406.019 466.082C406.019 461.179 405.34 456.301 404.002 451.596C403.228 454.199 402.292 456.748 401.2 459.227C400.599 460.749 399.887 462.222 399.071 463.634C399.155 463.72 397.866 465.808 397.95 465.894C398.034 465.981 396.549 468.486 396.549 468.4C393.215 474.491 383.157 486.154 383.325 486.154C383.157 486.154 377.89 491.065 375.018 493.541C369.765 498.013 364.198 502.08 358.362 505.709H358.726H358.362C352.622 509.274 346.687 512.496 340.585 515.356C345.485 516.941 350.592 517.747 355.728 517.747C356.583 517.747 357.423 517.747 358.25 517.747C368.518 512.001 384.838 498.898 406.019 468.328Z" stroke="#263238" stroke-width="1.1133" stroke-linecap="round" stroke-linejoin="round"/>
<path d="M406.019 468.328C384.838 498.898 368.518 512.002 358.334 517.617C370.823 516.971 382.629 511.563 391.447 502.449C400.264 493.334 405.46 481.169 406.019 468.328V468.328Z" stroke="#263238" stroke-width="1.1133" stroke-linecap="round" stroke-linejoin="round"/>
<path d="M316.532 498.279C322.748 506.311 331.151 512.257 340.669 515.357C346.771 512.496 352.706 509.275 358.446 505.709C346.483 507.985 327.767 502.34 316.532 498.279Z" stroke="#263238" stroke-width="1.1133" stroke-linecap="round" stroke-linejoin="round"/>
<path d="M358.446 505.709C364.282 502.081 369.849 498.014 375.102 493.542C338.974 497.343 316.686 485.838 307.216 479.301C309.004 486.224 312.176 492.688 316.532 498.279C327.767 502.34 346.482 507.984 358.446 505.709Z" stroke="#263238" stroke-width="1.1133" stroke-linecap="round" stroke-linejoin="round"/>
<path d="M375.102 493.542C377.974 491.065 380.565 488.588 382.933 486.14H380.271C380.467 486.327 380.664 486.515 380.846 486.716C380.664 486.515 380.467 486.327 380.271 486.14C359.637 485.838 343.947 482.555 332.166 478.249C314.949 472.115 308.743 465.52 305.689 462.568C305.605 463.749 305.549 464.915 305.549 466.111C305.551 470.572 306.111 475.015 307.216 479.329C316.686 485.838 338.974 497.343 375.102 493.542Z" stroke="#263238" stroke-width="1.1133" stroke-linecap="round" stroke-linejoin="round"/>
<path d="M355.588 517.459C383.293 517.459 405.753 494.373 405.753 465.894C405.753 437.416 383.293 414.33 355.588 414.33C327.883 414.33 305.423 437.416 305.423 465.894C305.423 494.373 327.883 517.459 355.588 517.459Z" stroke="#263238" stroke-width="1.1133" stroke-linecap="round" stroke-linejoin="round"/>
<path d="M447.989 377.77C447.989 377.77 444.557 366.323 434.555 362.204C427.55 359.324 419.608 360.102 412.393 361.384C398.973 363.788 387.262 369.274 374.57 373.954C374.57 373.954 380.005 371.895 402.293 383.069C410.502 387.173 419.888 390.37 429.273 390.154C436.796 389.981 448.367 387.763 447.989 377.77Z" fill="#E23C40"/>
<path d="M449.194 344.118C449.194 344.118 449.194 332.124 440.789 325.226C434.933 320.417 427.06 318.761 419.776 317.854C406.243 316.169 393.496 317.94 379.991 318.646C379.991 318.646 385.777 318.3 403.974 335.608C410.684 341.973 418.781 347.819 427.789 350.397C435.045 352.47 446.728 353.795 449.194 344.118Z" fill="#E23C40"/>
<path d="M472.182 388.627C472.182 388.627 463.09 381.125 463.062 370.052C463.062 362.348 466.662 354.99 470.487 348.582C477.603 336.631 486.877 327.473 495.814 317.033C495.814 317.033 491.948 321.468 493.825 346.883C494.525 356.243 493.937 366.394 490.281 375.279C487.409 382.421 481.147 392.659 472.182 388.627Z" fill="#E23C40"/>
<path d="M504.402 407.03C504.402 407.03 503.113 395.121 510.706 387.259C515.973 381.802 523.607 379.21 530.71 377.453C543.962 374.17 556.822 374.415 570.312 373.508C570.312 373.508 564.541 373.839 548.403 393.192C542.463 400.392 535.081 407.087 526.381 410.73C519.447 413.653 507.988 416.346 504.402 407.03Z" fill="#E23C40"/>
<path d="M502.342 364.566C502.342 364.566 490.785 362.939 485.238 353.449C481.371 346.855 480.797 338.618 480.867 331.102C481.007 317.105 484.397 304.333 486.849 290.668C486.849 290.668 485.742 296.514 500.059 317.321C505.326 324.996 509.865 334.01 511.266 343.571C512.26 351.246 511.994 363.327 502.342 364.566Z" fill="#E23C40"/>
<path d="M535.599 343.24C535.599 343.24 543.906 351.65 554.609 350.44C562.047 349.562 568.743 344.997 574.487 340.36C585.189 331.721 592.964 321.152 602 310.827C602 310.827 598.175 315.277 573.394 316.328C564.275 316.716 554.539 318.488 546.372 323.268C539.816 327.041 530.668 334.629 535.599 343.24Z" fill="#E23C40"/>
<path d="M525.975 334.932C525.975 334.932 537.574 336.127 545.139 328.251C550.406 322.764 552.844 314.902 554.483 307.573C557.536 293.937 557.172 280.704 557.901 266.837C557.901 266.837 557.648 272.769 538.975 289.559C532.111 295.737 525.597 303.397 522.165 312.368C519.377 319.582 516.869 331.39 525.975 334.932Z" fill="#E23C40"/>
<path d="M484.551 451.006L464.519 400.334L441.419 341.743" stroke="#263238" stroke-width="1.1133" stroke-linecap="round" stroke-linejoin="round"/>
<path d="M489.174 442.293L509.193 371.837L530.766 328.293" stroke="#263238" stroke-width="1.1133" stroke-linecap="round" stroke-linejoin="round"/>
<path d="M496.865 414.589L516.898 402.71" stroke="#263238" stroke-width="1.1133" stroke-linecap="round" stroke-linejoin="round"/>
<path d="M509.193 371.837L499.177 348.87" stroke="#263238" stroke-width="1.1133" stroke-linecap="round" stroke-linejoin="round"/>
<path d="M521.73 348.986L546.161 337.783" stroke="#263238" stroke-width="1.1133" stroke-linecap="round" stroke-linejoin="round"/>
<path d="M468.371 409.838L476.846 375.006" stroke="#263238" stroke-width="1.1133" stroke-linecap="round" stroke-linejoin="round"/>
<path d="M457.136 383.357L437.566 372.63" stroke="#263238" stroke-width="1.1133" stroke-linecap="round" stroke-linejoin="round"/>
<path d="M494.82 476.334H478.122C475.392 476.333 472.748 475.353 470.646 473.563C468.544 471.773 467.115 469.285 466.607 466.528L460.667 434.374H512.275L506.349 466.528C505.837 469.286 504.406 471.774 502.302 473.564C500.197 475.354 497.551 476.333 494.82 476.334V476.334Z" fill="#263238" stroke="#263238" stroke-width="1.1133" stroke-linecap="round" stroke-linejoin="round"/>
<path d="M24.8311 280.316C24.8311 276.327 26.6242 273.39 30.6586 273.39C34.6931 273.39 36.5563 276.27 36.5563 280.316V294.312C36.5563 298.301 34.7632 301.238 30.6586 301.238C26.5541 301.238 24.8311 298.358 24.8311 294.312V280.316ZM26.5821 294.427C26.5821 297.408 27.7308 299.597 30.6586 299.597C33.5864 299.597 34.8612 297.408 34.8612 294.427V280.201C34.8612 277.22 33.6845 275.031 30.6586 275.031C27.6328 275.031 26.5821 277.22 26.5821 280.201V294.427Z" fill="#263238"/>
<path d="M39.3159 280.316C39.3159 276.327 41.109 273.39 45.1435 273.39C49.178 273.39 51.0411 276.27 51.0411 280.316V294.312C51.0411 298.301 49.248 301.238 45.1435 301.238C41.039 301.238 39.3159 298.358 39.3159 294.312V280.316ZM41.067 294.427C41.067 297.408 42.2157 299.597 45.1435 299.597C48.0713 299.597 49.3461 297.408 49.3461 294.427V280.201C49.3461 277.22 48.1694 275.031 45.1435 275.031C42.1176 275.031 41.067 277.22 41.067 280.201V294.427Z" fill="#263238"/>
<path d="M59.4603 273.619C63.5788 273.619 65.1758 276.283 65.1758 280.272V283.252C65.1758 287.572 63.2286 289.732 59.012 289.732H55.692V301.007H53.9409V273.648L59.4603 273.619ZM59.012 288.091C62.0939 288.091 63.4247 286.651 63.4247 283.368V280.156C63.4247 277.19 62.4301 275.261 59.4603 275.261H55.692V288.091H59.012Z" fill="#263238"/>
<path d="M79.0303 280.228V280.819H77.3493V280.113C77.3493 277.233 76.2847 275.03 73.3989 275.03C70.5131 275.03 69.4344 277.147 69.4344 280.027C69.4344 286.665 79.0584 286.78 79.0584 294.34C79.0584 298.285 77.3913 301.18 73.3148 301.18C69.2383 301.18 67.5713 298.3 67.5713 294.34V292.9H69.2523V294.426C69.2523 297.306 70.345 299.466 73.2728 299.466C76.2006 299.466 77.3073 297.349 77.3073 294.426C77.3073 287.846 67.6834 287.73 67.6834 280.113C67.6834 275.995 69.4344 273.345 73.2868 273.302C77.1392 273.259 79.0303 276.283 79.0303 280.228Z" fill="#263238"/>
<path d="M83.4009 297.565V301.007H81.6919V297.565H83.4009Z" fill="#263238"/>
<path d="M88.1635 297.565V301.007H86.4404V297.565H88.1635Z" fill="#263238"/>
<path d="M92.913 297.565V301.007H91.1479V297.565H92.913Z" fill="#263238"/>
<path d="M30.4623 313.463C34.5808 313.463 36.1778 316.112 36.1778 320.101V323.082C36.1778 327.402 34.2306 329.576 30.014 329.576H26.708V340.836H24.9429V313.477L30.4623 313.463ZM30.014 327.862C33.0959 327.862 34.4267 326.422 34.4267 323.125V319.914C34.4267 316.948 33.4321 315.032 30.4623 315.032H26.708V327.862H30.014Z" fill="#263238"/>
<path d="M40.8568 334.744L39.526 340.806H37.915L43.7286 313.447H46.3202L52.2599 340.806H50.5228L49.1219 334.744H40.8568ZM41.123 333.175H48.8838L44.9193 315.492L41.123 333.175Z" fill="#263238"/>
<path d="M66.2405 320.144V322.174H64.5314V320.029C64.5314 317.149 63.4388 314.859 60.497 314.859C57.5552 314.859 56.4765 317.091 56.4765 320.029V334.27C56.4765 337.15 57.5692 339.382 60.497 339.382C63.4248 339.382 64.5314 337.193 64.5314 334.27V328.352H61.0293V326.71H66.2405V334.14C66.2405 338.1 64.5595 341.066 60.497 341.066C56.4345 341.066 54.7534 338.1 54.7534 334.14V320.144C54.7534 316.198 56.4205 313.218 60.497 313.218C64.5735 313.218 66.2405 316.198 66.2405 320.144Z" fill="#263238"/>
<path d="M78.1895 326.104V327.746H70.919V339.165H79.6744V340.806H69.168V313.447H79.6744V315.089H70.919V326.104H78.1895Z" fill="#263238"/>
<path d="M90.0267 340.835H88.4297V313.477H90.7131L98.698 336.516V313.477H100.295V340.835H98.3618L89.9566 316.356L90.0267 340.835Z" fill="#263238"/>
<path d="M103.195 320.144C103.195 316.155 104.974 313.218 109.009 313.218C113.043 313.218 114.907 316.098 114.907 320.144V334.14C114.907 338.129 113.127 341.066 109.009 341.066C104.89 341.066 103.195 338.186 103.195 334.14V320.144ZM104.946 334.27C104.946 337.236 106.081 339.425 109.009 339.425C111.937 339.425 113.211 337.236 113.211 334.27V320.029C113.211 317.048 112.035 314.859 109.009 314.859C105.983 314.859 104.946 317.048 104.946 320.029V334.27Z" fill="#263238"/>
<path d="M122.289 340.836V315.104H116.896V313.463H129.503V315.104H124.054V340.836H122.289Z" fill="#263238"/>
<path d="M146.187 326.796V328.438H139.309V340.835H137.558V313.477H147.672V315.118H139.267V326.81L146.187 326.796Z" fill="#263238"/>
<path d="M150.222 320.144C150.222 316.155 152.015 313.218 156.05 313.218C160.084 313.218 161.947 316.098 161.947 320.144V334.14C161.947 338.129 160.154 341.066 156.05 341.066C151.945 341.066 150.222 338.186 150.222 334.14V320.144ZM151.973 334.27C151.973 337.236 153.122 339.425 156.05 339.425C158.978 339.425 160.252 337.236 160.252 334.27V320.029C160.252 317.048 159.076 314.859 156.05 314.859C153.024 314.859 151.973 317.048 151.973 320.029V334.27Z" fill="#263238"/>
<path d="M166.514 334.227C166.514 337.107 167.579 339.425 170.506 339.425C173.434 339.425 174.499 337.164 174.499 334.227V313.463H176.138V334.14C176.138 338.057 174.541 341.067 170.534 341.067C166.528 341.067 164.819 338.057 164.819 334.14V313.463H166.57L166.514 334.227Z" fill="#263238"/>
<path d="M180.803 340.835H179.206V313.477H181.489L189.474 336.516V313.477H191.071V340.835H189.138L180.803 316.356V340.835Z" fill="#263238"/>
<path d="M199.882 313.463C204.001 313.463 205.78 316.228 205.78 320.259V334.025C205.78 338.057 204.001 340.836 199.882 340.836H194.027V313.477L199.882 313.463ZM199.882 339.195C202.852 339.195 204.085 337.121 204.085 334.112V320.187C204.085 317.178 202.838 315.104 199.882 315.104H195.806V339.195H199.882Z" fill="#263238"/>
<path d="M266.465 408.585C235.282 408.585 216.539 380.146 209.885 355.134L209.66 354.255C209.306 353.043 209.193 351.769 209.328 350.51C209.464 349.251 209.845 348.034 210.449 346.93C211.053 345.826 211.867 344.859 212.843 344.086C213.819 343.313 214.936 342.75 216.129 342.431C217.321 342.113 218.564 342.044 219.782 342.231C221.001 342.417 222.17 342.854 223.221 343.516C224.271 344.177 225.181 345.05 225.896 346.081C226.611 347.112 227.116 348.281 227.381 349.518L227.549 350.166C232.607 369.202 246.377 390.96 268.469 389.707C272.623 389.559 276.7 388.514 280.436 386.642C284.172 384.769 287.483 382.109 290.154 378.835C302.271 364.551 307.693 333.491 306.488 317.825C306.374 316.82 306.458 315.801 306.736 314.83C307.013 313.859 307.479 312.955 308.104 312.173C308.729 311.391 309.501 310.746 310.373 310.278C311.246 309.809 312.202 309.526 313.184 309.446C314.165 309.365 315.152 309.489 316.086 309.81C317.02 310.13 317.882 310.641 318.619 311.312C319.357 311.982 319.955 312.799 320.379 313.713C320.803 314.626 321.043 315.619 321.085 316.63C322.486 334.067 320.637 371.549 303.952 391.204C299.682 396.373 294.417 400.576 288.488 403.55C282.56 406.524 276.096 408.204 269.505 408.484C268.483 408.556 267.46 408.585 266.465 408.585Z" fill="white"/>
<path d="M313.198 309.718C311.263 309.88 309.469 310.824 308.211 312.344C306.953 313.864 306.333 315.836 306.488 317.825C307.076 325.471 306.082 336.775 303.504 348.064C307.186 347.904 310.867 348.391 314.389 349.504C313.556 360.337 309.854 370.729 303.686 379.555C290.084 398.98 269.687 405.186 253.816 402.854C246.713 401.817 238.574 397.987 231.724 394.056C241.019 403.373 253.483 408.595 266.465 408.613C267.46 408.613 268.483 408.613 269.505 408.527C276.097 408.247 282.56 406.567 288.488 403.593C294.417 400.62 299.682 396.416 303.953 391.248C320.637 371.592 322.43 334.111 321.085 316.673C321.016 315.682 320.757 314.716 320.322 313.829C319.887 312.941 319.286 312.152 318.553 311.505C317.819 310.858 316.968 310.367 316.049 310.061C315.13 309.754 314.161 309.638 313.198 309.718V309.718Z" fill="#E23C40"/>
<path opacity="0.5" d="M313.198 309.718C311.263 309.88 309.469 310.824 308.211 312.344C306.953 313.864 306.333 315.836 306.488 317.825C307.076 325.471 306.082 336.775 303.504 348.064C307.186 347.904 310.867 348.391 314.389 349.504C313.556 360.337 309.854 370.729 303.686 379.555C290.084 398.98 269.687 405.186 253.816 402.854C246.713 401.817 238.574 397.987 231.724 394.056C241.019 403.373 253.483 408.595 266.465 408.613C267.46 408.613 268.483 408.613 269.505 408.527C276.097 408.247 282.56 406.567 288.488 403.593C294.417 400.62 299.682 396.416 303.953 391.248C320.637 371.592 322.43 334.111 321.085 316.673C321.016 315.682 320.757 314.716 320.322 313.829C319.887 312.941 319.286 312.152 318.553 311.505C317.819 310.858 316.968 310.367 316.049 310.061C315.13 309.754 314.161 309.638 313.198 309.718V309.718Z" fill="white"/>
<path d="M266.465 408.585C235.282 408.585 216.539 380.146 209.885 355.134L209.66 354.255C209.306 353.043 209.193 351.769 209.328 350.51C209.464 349.251 209.845 348.034 210.449 346.93C211.053 345.826 211.867 344.859 212.843 344.086C213.819 343.313 214.936 342.75 216.129 342.431C217.321 342.113 218.564 342.044 219.782 342.231C221.001 342.417 222.17 342.854 223.221 343.516C224.271 344.177 225.181 345.05 225.896 346.081C226.611 347.112 227.116 348.281 227.381 349.518L227.549 350.166C232.607 369.202 246.377 390.96 268.469 389.707C272.623 389.559 276.7 388.514 280.436 386.642C284.172 384.769 287.483 382.109 290.154 378.835C302.271 364.551 307.693 333.491 306.488 317.825C306.374 316.82 306.458 315.801 306.736 314.83C307.013 313.859 307.479 312.955 308.104 312.173C308.729 311.391 309.501 310.746 310.373 310.278C311.246 309.809 312.202 309.526 313.184 309.446C314.165 309.365 315.152 309.489 316.086 309.81C317.02 310.13 317.882 310.641 318.619 311.312C319.357 311.982 319.955 312.799 320.379 313.713C320.803 314.626 321.043 315.619 321.085 316.63C322.486 334.067 320.637 371.549 303.952 391.204C299.682 396.373 294.417 400.576 288.488 403.55C282.56 406.524 276.096 408.204 269.505 408.484C268.483 408.556 267.46 408.585 266.465 408.585Z" stroke="#263238" stroke-width="1.1133" stroke-linecap="round" stroke-linejoin="round"/>
<path d="M248.479 389.102C249.221 385.574 241.012 391.089 234.134 396.23C236.678 398.44 239.417 400.402 242.315 402.09C244.766 397.986 247.764 392.5 248.479 389.102Z" fill="#E23C40" stroke="#263238" stroke-width="1.1133" stroke-linecap="round" stroke-linejoin="round"/>
<path d="M266.466 408.585C267.46 408.585 268.483 408.585 269.506 408.498C272.482 408.327 275.439 407.898 278.345 407.217C274.479 402.033 269.155 395.179 267.628 394.66C265.877 394.056 262.501 402.882 260.624 408.239C262.563 408.471 264.514 408.587 266.466 408.585V408.585Z" fill="#E23C40" stroke="#263238" stroke-width="1.1133" stroke-linecap="round" stroke-linejoin="round"/>
<path d="M227.549 350.167L227.381 349.519C227.116 348.282 226.611 347.113 225.896 346.082C225.181 345.05 224.271 344.178 223.221 343.516C222.17 342.855 221.001 342.418 219.782 342.231C218.564 342.045 217.321 342.113 216.129 342.432C214.936 342.751 213.819 343.314 212.843 344.086C211.867 344.859 211.053 345.827 210.449 346.931C209.845 348.034 209.464 349.252 209.328 350.511C209.193 351.769 209.306 353.043 209.66 354.256L209.885 355.134C212.22 363.918 215.808 372.298 220.531 380.002L237.215 371.838C232.84 365.219 229.573 357.894 227.549 350.167Z" fill="#E23C40" stroke="#263238" stroke-width="1.1133" stroke-linecap="round" stroke-linejoin="round"/>
<path d="M303.953 391.205C305.235 389.68 306.423 388.073 307.511 386.396C302.215 384.538 294.287 381.975 291.345 382.249C287.857 382.58 292.592 394.099 295.029 399.528C298.31 397.122 301.305 394.329 303.953 391.205V391.205Z" fill="#E23C40" stroke="#263238" stroke-width="1.1133" stroke-linecap="round" stroke-linejoin="round"/>
<path d="M304.247 360.433C303.686 361.585 310.537 366.712 315.159 370.009C316.626 365.524 317.805 360.944 318.69 356.301C313.086 357.453 304.793 359.31 304.247 360.433Z" fill="#E23C40" stroke="#263238" stroke-width="1.1133" stroke-linecap="round" stroke-linejoin="round"/>
<path d="M320.959 339.136C321.267 335.032 321.421 331.115 321.435 327.516C316.616 330.237 310.901 334.01 310.901 336.486C310.901 338.963 316.252 339.266 320.959 339.136Z" fill="#E23C40" stroke="#263238" stroke-width="1.1133" stroke-linecap="round" stroke-linejoin="round"/>
<path d="M245.536 227.729C245.536 227.729 231.934 268.22 239.261 299.726C241.431 308.945 245.643 317.525 251.57 324.796C257.496 332.067 264.977 337.832 273.428 341.643C273.428 341.643 253.549 348.842 258.018 359.915C262.487 370.989 279.619 363.861 285.209 360.275C290.798 356.69 297.817 345.948 298.797 338.777C299.42 335.113 299.655 331.391 299.498 327.675C299.498 327.675 322.15 325.17 337.489 312.268C337.489 312.268 351.091 323.37 360.855 321.224C370.619 319.079 384.558 301.151 383.157 285.038C381.756 268.925 372.721 268.94 367.201 271.388C364.336 272.501 361.723 274.207 359.525 276.399C359.525 276.399 367.537 266.319 359.525 252.395C357.16 248.311 353.921 244.833 350.055 242.226C346.188 239.619 341.795 237.951 337.209 237.347C337.209 237.347 333.006 214.409 320.483 205.813C307.959 197.216 263.313 188.317 245.536 227.729Z" fill="white"/>
<path d="M349.103 241.653C342.636 252.741 333.687 262.082 323 268.9C312.314 275.717 300.198 279.813 287.661 280.848C259.924 283.353 244.374 277.738 237.23 273.835C238.097 258.169 240.922 242.682 245.635 227.757C263.412 188.346 308.03 197.302 320.581 205.899C333.133 214.495 337.308 237.433 337.308 237.433C341.484 237.972 345.503 239.41 349.103 241.653ZM367.202 271.387C364.337 272.501 361.724 274.206 359.525 276.398C361.222 273.994 362.34 271.211 362.789 268.277C343.948 277.925 345.419 298.516 343.079 298.516C340.193 298.516 338.764 288.163 338.764 288.163C338.764 288.163 335.164 302.951 313.549 313.319C291.934 323.686 267.489 315.536 267.489 315.536C267.489 315.536 272.532 327.372 259.574 325.889C255.937 325.532 252.45 324.223 249.445 322.088C255.659 330.603 263.912 337.32 273.4 341.585C273.4 341.585 253.522 348.784 257.991 359.858C262.46 370.931 279.606 363.803 285.181 360.217C290.757 356.632 297.789 345.89 298.77 338.719C299.393 335.055 299.628 331.333 299.47 327.617C299.47 327.617 322.122 325.112 337.462 312.21C337.462 312.21 351.064 323.312 360.828 321.166C370.592 319.021 384.531 301.093 383.13 284.98C381.729 268.867 372.721 268.939 367.202 271.387Z" fill="#E23C40"/>
<path opacity="0.5" d="M349.103 241.653C342.636 252.741 333.687 262.082 323 268.9C312.314 275.717 300.198 279.813 287.661 280.848C259.924 283.353 244.374 277.738 237.23 273.835C238.097 258.169 240.922 242.682 245.635 227.757C263.412 188.346 308.03 197.302 320.581 205.899C333.133 214.495 337.308 237.433 337.308 237.433C341.484 237.972 345.503 239.41 349.103 241.653ZM367.202 271.387C364.337 272.501 361.724 274.206 359.525 276.398C361.222 273.994 362.34 271.211 362.789 268.277C343.948 277.925 345.419 298.516 343.079 298.516C340.193 298.516 338.764 288.163 338.764 288.163C338.764 288.163 335.164 302.951 313.549 313.319C291.934 323.686 267.489 315.536 267.489 315.536C267.489 315.536 272.532 327.372 259.574 325.889C255.937 325.532 252.45 324.223 249.445 322.088C255.659 330.603 263.912 337.32 273.4 341.585C273.4 341.585 253.522 348.784 257.991 359.858C262.46 370.931 279.606 363.803 285.181 360.217C290.757 356.632 297.789 345.89 298.77 338.719C299.393 335.055 299.628 331.333 299.47 327.617C299.47 327.617 322.122 325.112 337.462 312.21C337.462 312.21 351.064 323.312 360.828 321.166C370.592 319.021 384.531 301.093 383.13 284.98C381.729 268.867 372.721 268.939 367.202 271.387Z" fill="white"/>
<path d="M299.569 327.704C292.05 327.91 284.586 326.341 277.75 323.118C270.914 319.896 264.888 315.105 260.134 309.114" stroke="#263238" stroke-width="1.1133" stroke-linecap="round" stroke-linejoin="round"/>
<path d="M245.536 227.729C245.536 227.729 231.934 268.22 239.261 299.726C241.431 308.945 245.643 317.525 251.57 324.796C257.496 332.067 264.977 337.832 273.428 341.643C273.428 341.643 253.549 348.842 258.018 359.915C262.487 370.989 279.619 363.861 285.209 360.275C290.798 356.69 297.817 345.948 298.797 338.777C299.42 335.113 299.655 331.391 299.498 327.675C299.498 327.675 322.15 325.17 337.489 312.268C337.489 312.268 351.091 323.37 360.855 321.224C370.619 319.079 384.558 301.151 383.157 285.038C381.756 268.925 372.721 268.94 367.201 271.388C364.336 272.501 361.723 274.207 359.525 276.399C359.525 276.399 367.537 266.319 359.525 252.395C357.16 248.311 353.921 244.833 350.055 242.226C346.188 239.619 341.795 237.951 337.209 237.347C337.209 237.347 333.006 214.409 320.483 205.813C307.959 197.216 263.313 188.317 245.536 227.729Z" stroke="#263238" stroke-width="1.1133" stroke-linecap="round" stroke-linejoin="round"/>
<path d="M359.525 276.455C359.525 276.455 352.212 281.48 348.724 296.888" stroke="#263238" stroke-width="1.1133" stroke-linecap="round" stroke-linejoin="round"/>
<path d="M372.959 283.051C372.104 285.672 369.765 287.241 367.748 286.536C365.73 285.83 364.806 283.138 365.66 280.517C366.515 277.896 368.854 276.327 370.872 277.032C372.889 277.738 373.827 280.431 372.959 283.051Z" fill="white" stroke="#263238" stroke-width="1.1133" stroke-linecap="round" stroke-linejoin="round"/>
<path d="M380.174 287.716C379.319 290.337 376.98 291.907 374.963 291.201C372.945 290.495 372.007 287.803 372.875 285.182C373.744 282.561 376.069 280.992 378.086 281.697C380.104 282.403 381.042 285.096 380.174 287.716Z" fill="white" stroke="#263238" stroke-width="1.1133" stroke-linecap="round" stroke-linejoin="round"/>
<path d="M381.714 294.7C381.435 295.182 381.028 295.572 380.541 295.826C380.054 296.08 379.507 296.186 378.963 296.133C378.42 296.08 377.902 295.87 377.47 295.526C377.038 295.183 376.71 294.721 376.524 294.193C376.337 293.666 376.3 293.095 376.417 292.546C376.533 291.998 376.799 291.495 377.183 291.096C377.566 290.697 378.052 290.417 378.584 290.291C379.116 290.164 379.672 290.195 380.187 290.38C380.931 290.762 381.504 291.423 381.788 292.227C382.072 293.03 382.046 293.915 381.714 294.7V294.7Z" fill="white" stroke="#263238" stroke-width="1.1133" stroke-linecap="round" stroke-linejoin="round"/>
<path d="M372.511 304.289C369.989 308.969 364.946 311.042 361.234 308.926C357.522 306.809 356.569 301.323 359.09 296.643C361.612 291.963 366.655 289.89 370.367 292.006C374.08 294.123 375.032 299.609 372.511 304.289Z" fill="white" stroke="#263238" stroke-width="1.1133" stroke-linecap="round" stroke-linejoin="round"/>
<path d="M273.428 341.671C278.124 343.918 283.462 344.302 288.417 342.751" stroke="#263238" stroke-width="1.1133" stroke-linecap="round" stroke-linejoin="round"/>
<path d="M258.088 359.943C258.088 359.943 259.489 353.852 268.189 349.561" stroke="#263238" stroke-width="1.1133" stroke-linecap="round" stroke-linejoin="round"/>
<path d="M266.802 365.329C266.802 365.329 270.29 356.689 276.216 352.787" stroke="#263238" stroke-width="1.1133" stroke-linecap="round" stroke-linejoin="round"/>
<path d="M129.335 266.203C127.853 264.987 126.672 263.429 125.888 261.655C125.104 259.88 124.74 257.94 124.824 255.994V221.853H39.1477C37.0548 221.933 34.9698 221.548 33.0354 220.723C31.1011 219.897 29.3632 218.652 27.9408 217.072C25.1385 214.025 23.601 209.976 23.6542 205.783C23.6428 202.376 24.6181 199.043 26.4559 196.207L108.518 63.646C114.682 53.864 122.873 48.973 133.09 48.973C138.582 48.7812 143.946 50.713 148.121 54.3872C152.127 57.987 154.13 63.3388 154.13 70.4425V199.303H175.928C177.433 199.21 178.94 199.458 180.342 200.031C181.744 200.603 183.006 201.485 184.039 202.615C185.882 204.836 186.895 207.659 186.895 210.578C186.895 213.497 185.882 216.32 184.039 218.541C183.006 219.67 181.744 220.553 180.342 221.125C178.94 221.697 177.433 221.946 175.928 221.853H153.976V255.994C154.067 257.926 153.721 259.853 152.965 261.625C152.209 263.396 151.064 264.963 149.62 266.203C146.8 268.633 143.227 269.946 139.547 269.904C135.827 269.934 132.214 268.624 129.335 266.203ZM124.768 199.303V80.6518L52.9182 199.303H124.768Z" fill="#263238"/>
<path d="M248.226 266.894C239.829 263.127 232.393 257.416 226.499 250.205C220.579 242.587 215.956 233.994 212.826 224.79C209.279 214.847 206.785 204.54 205.388 194.048C203.93 182.624 203.228 171.111 203.287 159.59C203.287 83.6855 228.502 45.7334 278.933 45.7334C329.364 45.7334 354.519 83.6855 354.398 159.59C354.447 171.056 353.769 182.514 352.366 193.889C351.015 204.384 348.544 214.693 344.998 224.632C341.868 233.836 337.245 242.429 331.325 250.047C325.424 257.267 317.991 263.001 309.598 266.808C299.948 271.193 289.482 273.356 278.933 273.144C268.379 273.361 257.904 271.23 248.226 266.894V266.894ZM293.838 245.108C298.058 243.258 301.888 240.583 305.115 237.231C308.383 233.655 311.07 229.561 313.072 225.107C315.282 220.388 317.068 215.472 318.409 210.42C319.822 204.915 320.852 199.314 321.491 193.659C322.248 187.419 322.752 181.702 323.004 176.509C323.256 171.316 323.378 165.676 323.368 159.59C323.368 153.206 323.247 147.312 323.004 141.907C322.761 136.503 322.234 130.704 321.421 124.513C320.724 118.862 319.671 113.263 318.269 107.752C316.944 102.75 315.156 97.8898 312.932 93.2371C310.914 88.8535 308.223 84.8326 304.961 81.3288C301.753 78.045 297.944 75.4463 293.754 73.6827C284.176 69.8816 273.564 69.8816 263.986 73.6827C259.827 75.4251 256.046 77.9997 252.863 81.2568C249.625 84.7453 246.94 88.7345 244.906 93.0787C242.662 97.6896 240.897 102.53 239.639 107.521C238.271 113.066 237.242 118.692 236.557 124.369C235.745 130.647 235.217 136.493 234.974 141.907C234.731 147.321 234.605 153.216 234.596 159.59C234.596 165.666 234.722 171.33 234.974 176.581C235.226 181.832 235.726 187.592 236.473 193.86C237.119 199.514 238.149 205.115 239.555 210.621C240.877 215.672 242.645 220.588 244.836 225.309C246.818 229.736 249.481 233.805 252.723 237.361C255.926 240.691 259.734 243.342 263.93 245.166C273.517 249.178 284.251 249.178 293.838 245.166V245.108Z" fill="#263238"/>
<path d="M484.201 266.204C482.719 264.988 481.538 263.43 480.754 261.656C479.97 259.881 479.606 257.941 479.691 255.995V221.854H394.014C391.921 221.934 389.836 221.549 387.902 220.724C385.967 219.898 384.229 218.653 382.807 217.073C380.005 214.026 378.467 209.977 378.52 205.784C378.509 202.377 379.484 199.044 381.322 196.208L463.385 63.647C469.492 53.865 477.659 48.974 487.886 48.974C493.407 48.7603 498.804 50.6935 503.001 54.3882C507.007 57.9881 509.011 63.3398 509.011 70.4436V199.304H530.808C532.314 199.211 533.821 199.459 535.222 200.032C536.624 200.604 537.886 201.486 538.919 202.616C540.762 204.837 541.775 207.66 541.775 210.579C541.775 213.498 540.762 216.321 538.919 218.542C537.886 219.671 536.624 220.554 535.222 221.126C533.821 221.699 532.314 221.947 530.808 221.854H508.843V255.995C508.933 257.927 508.587 259.854 507.831 261.626C507.075 263.397 505.93 264.964 504.486 266.204C501.666 268.634 498.093 269.947 494.414 269.905C490.694 269.935 487.081 268.625 484.201 266.204V266.204ZM479.691 199.304V80.6528L407.84 199.304H479.691Z" fill="#263238"/>
<path d="M217.295 207.31C217.295 207.31 202.656 228.448 200.569 249.946C198.481 271.445 200.919 285.772 207.195 291.158C213.471 296.543 219.732 294.383 223.221 289.358C226.709 284.332 221.133 266.779 221.133 266.779C221.133 266.779 227.059 249.946 236.123 238.125C245.186 226.303 246.923 224.503 246.923 224.503C246.923 224.503 231.234 206.23 217.295 207.31Z" fill="white"/>
<path d="M217.295 207.31C214.101 212.161 211.268 217.254 208.82 222.544C215.824 225.424 226.681 231.328 233.573 241.782C234.414 240.529 235.282 239.291 236.179 238.125C245.242 226.303 246.979 224.503 246.979 224.503C246.979 224.503 231.234 206.23 217.295 207.31Z" fill="#E23C40"/>
<path opacity="0.5" d="M217.295 207.31C214.101 212.161 211.268 217.254 208.82 222.544C215.824 225.424 226.681 231.328 233.573 241.782C234.414 240.529 235.282 239.291 236.179 238.125C245.242 226.303 246.979 224.503 246.979 224.503C246.979 224.503 231.234 206.23 217.295 207.31Z" fill="white"/>
<path d="M217.295 207.31C217.295 207.31 202.656 228.448 200.569 249.946C198.481 271.445 200.919 285.772 207.195 291.158C213.471 296.543 219.732 294.383 223.221 289.358C226.709 284.332 221.133 266.779 221.133 266.779C221.133 266.779 227.059 249.946 236.123 238.125C245.186 226.303 246.923 224.503 246.923 224.503C246.923 224.503 231.234 206.23 217.295 207.31Z" stroke="#263238" stroke-width="1.1133" stroke-linecap="round" stroke-linejoin="round"/>
<path d="M207.195 291.157C205.484 286.459 204.652 281.471 204.744 276.455" stroke="#263238" stroke-width="1.1133" stroke-linecap="round" stroke-linejoin="round"/>
<path d="M216.595 293.303C216.595 293.303 213.121 287.212 212.771 276.815" stroke="#263238" stroke-width="1.1133" stroke-linecap="round" stroke-linejoin="round"/>
<path d="M221.834 245.641C221.834 241.868 214.83 234.495 205.094 231.241C203.785 234.749 202.704 238.343 201.858 241.998C205.641 242.663 209.314 243.87 212.771 245.583C217.996 248.506 221.834 249.946 221.834 245.641Z" fill="#E23C40" stroke="#263238" stroke-width="1.1133" stroke-linecap="round" stroke-linejoin="round"/>
<path d="M216.441 208.591C214.183 212.129 212.107 215.787 210.221 219.549C213.169 220.35 215.997 221.561 218.626 223.149C229.427 229.585 231.514 230.348 228.04 220.989C225.939 215.114 220.924 211.125 216.441 208.591Z" fill="#E23C40" stroke="#263238" stroke-width="1.1133" stroke-linecap="round" stroke-linejoin="round"/>
<path d="M331.956 196.87C331.956 196.87 348.542 216.425 352.675 237.621C356.807 258.816 355.756 273.317 350.013 279.293C344.269 285.268 337.839 283.771 333.889 279.12C329.939 274.469 333.889 256.455 333.889 256.455C333.889 256.455 326.38 240.284 316.238 229.427C306.096 218.57 304.177 216.972 304.177 216.972C304.177 216.972 317.975 197.201 331.956 196.87Z" fill="white"/>
<path d="M331.956 196.87C317.947 197.201 304.107 217.029 304.107 217.029C304.107 217.029 306.012 218.642 316.168 229.485C318.068 231.541 319.854 233.704 321.52 235.965C326.821 226.761 334.393 219.161 343.471 213.933C340.131 207.907 336.277 202.197 331.956 196.87V196.87Z" fill="#E23C40"/>
<path opacity="0.5" d="M331.956 196.87C317.947 197.201 304.107 217.029 304.107 217.029C304.107 217.029 306.012 218.642 316.168 229.485C318.068 231.541 319.854 233.704 321.52 235.965C326.821 226.761 334.393 219.161 343.471 213.933C340.131 207.907 336.277 202.197 331.956 196.87V196.87Z" fill="white"/>
<path d="M331.956 196.87C331.956 196.87 348.542 216.425 352.675 237.621C356.807 258.816 355.756 273.317 350.013 279.293C344.269 285.268 337.839 283.771 333.889 279.12C329.939 274.469 333.889 256.455 333.889 256.455C333.889 256.455 326.38 240.284 316.238 229.427C306.096 218.57 304.177 216.972 304.177 216.972C304.177 216.972 317.975 197.201 331.956 196.87Z" stroke="#263238" stroke-width="1.1133" stroke-linecap="round" stroke-linejoin="round"/>
<path d="M350.013 279.292C351.268 274.45 351.62 269.408 351.049 264.432" stroke="#263238" stroke-width="1.1133" stroke-linecap="round" stroke-linejoin="round"/>
<path d="M340.851 282.374C340.851 282.374 343.751 275.966 343.106 265.584" stroke="#263238" stroke-width="1.1133" stroke-linecap="round" stroke-linejoin="round"/>
<path d="M331.101 235.475C330.751 231.717 337.013 223.682 346.399 219.521C348.022 222.877 349.426 226.34 350.601 229.888C346.907 230.947 343.372 232.521 340.095 234.568C335.192 237.952 331.522 239.709 331.101 235.475Z" fill="#E23C40" stroke="#263238" stroke-width="1.1133" stroke-linecap="round" stroke-linejoin="round"/>
<path d="M332.923 198.064C335.499 201.332 337.903 204.74 340.123 208.274C337.255 209.365 334.546 210.852 332.068 212.694C321.94 220.211 319.923 221.132 322.5 211.514C324.111 205.509 328.706 201.031 332.923 198.064Z" fill="#E23C40" stroke="#263238" stroke-width="1.1133" stroke-linecap="round" stroke-linejoin="round"/>
<path d="M215.922 189.021C215.922 189.021 211.608 203.982 213.233 210.073C214.858 216.164 222.394 210.635 229.945 217.273C237.496 223.911 244.486 235.892 273.077 238.109C301.669 240.327 318.928 224.473 324.909 215.603C330.891 206.733 330.303 196.207 340.543 195.66C350.783 195.112 342.168 174.593 338.932 171.267C338.932 171.267 358.88 140.783 358.88 133.022C358.88 125.261 340.011 126.917 316.854 134.131C316.854 134.131 299.596 124.699 268.314 130.243C237.033 135.787 227.872 145.218 227.872 145.218C227.872 145.218 189.04 150.201 186.35 155.183C183.66 160.165 191.659 181.26 215.922 189.021Z" fill="white"/>
<path d="M340.502 195.674C350.756 195.113 342.127 174.608 338.891 171.282C338.891 171.282 342.687 165.522 346.959 158.322C335.374 152.102 323.999 148.646 320.974 152.145C314.459 159.662 318.004 174.061 320.974 188.144C323.943 202.226 312.078 208.231 303.785 220.413C295.492 232.595 283.655 219.189 283.655 219.189C279.452 236.857 261.731 225.28 261.731 225.28C248.115 220.96 225.014 207.021 229.749 197.273C234.484 187.524 235.675 178.395 227.382 170.49C219.089 162.585 186.014 156.004 186.014 156.004C184.277 162.009 192.669 181.678 215.937 189.123C215.937 189.123 211.622 204.084 213.247 210.175C214.872 216.266 222.409 210.736 229.96 217.374C237.51 224.013 244.5 235.993 273.092 238.21C301.684 240.428 318.942 224.574 324.924 215.704C330.906 206.834 330.247 196.222 340.502 195.674Z" fill="#E23C40"/>
<path opacity="0.5" d="M340.502 195.674C350.756 195.113 342.127 174.608 338.891 171.282C338.891 171.282 342.687 165.522 346.959 158.322C335.374 152.102 323.999 148.646 320.974 152.145C314.459 159.662 318.004 174.061 320.974 188.144C323.943 202.226 312.078 208.231 303.785 220.413C295.492 232.595 283.655 219.189 283.655 219.189C279.452 236.857 261.731 225.28 261.731 225.28C248.115 220.96 225.014 207.021 229.749 197.273C234.484 187.524 235.675 178.395 227.382 170.49C219.089 162.585 186.014 156.004 186.014 156.004C184.277 162.009 192.669 181.678 215.937 189.123C215.937 189.123 211.622 204.084 213.247 210.175C214.872 216.266 222.409 210.736 229.96 217.374C237.51 224.013 244.5 235.993 273.092 238.21C301.684 240.428 318.942 224.574 324.924 215.704C330.906 206.834 330.247 196.222 340.502 195.674Z" fill="white"/>
<path d="M298.321 199.015C298.727 202.528 291.135 206.315 281.399 207.482C271.663 208.648 263.426 206.747 263.019 203.162C262.613 199.576 270.206 195.876 279.956 194.709C289.706 193.543 297.929 195.516 298.321 199.015Z" fill="#E23C40"/>
<path opacity="0.5" d="M298.321 199.015C298.727 202.528 291.135 206.315 281.399 207.482C271.663 208.648 263.426 206.747 263.019 203.162C262.613 199.576 270.206 195.876 279.956 194.709C289.706 193.543 297.929 195.516 298.321 199.015Z" fill="white"/>
<path d="M215.922 189.021C215.922 189.021 211.608 203.982 213.233 210.073C214.858 216.164 222.394 210.635 229.945 217.273C237.496 223.911 244.486 235.892 273.077 238.109C301.669 240.327 318.928 224.473 324.909 215.603C330.891 206.733 330.303 196.207 340.543 195.66C350.783 195.112 342.168 174.593 338.932 171.267C338.932 171.267 358.88 140.783 358.88 133.022C358.88 125.261 340.011 126.917 316.854 134.131C316.854 134.131 299.596 124.699 268.314 130.243C237.033 135.787 227.872 145.218 227.872 145.218C227.872 145.218 189.04 150.201 186.35 155.183C183.66 160.165 191.659 181.26 215.922 189.021Z" stroke="#263238" stroke-width="1.1133" stroke-miterlimit="10"/>
<path d="M327.459 144.672C313.451 154.349 318.396 164.025 324.658 169.396C328.482 172.679 334.646 172.276 338.862 171.354C338.862 171.354 358.811 140.871 358.811 133.109C358.825 133.037 341.398 134.924 327.459 144.672Z" fill="#E23C40" stroke="#263238" stroke-width="1.1133" stroke-miterlimit="10"/>
<path d="M186 155.903C184.263 161.907 192.654 181.577 215.922 189.021C215.922 189.021 233.685 187.236 227.76 172.548C222.226 158.84 194.251 155.427 186 155.903Z" fill="#E23C40" stroke="#263238" stroke-width="1.1133" stroke-miterlimit="10"/>
<path d="M268.231 130.272C266.396 130.604 264.631 130.949 262.936 131.295C265.737 145.838 270.346 170.058 274.465 170.058C278.583 170.058 281.735 143.505 283.08 128.631C278.101 128.846 273.141 129.395 268.231 130.272V130.272Z" fill="#E23C40" stroke="#263238" stroke-width="1.1133" stroke-miterlimit="10"/>
<path d="M252.163 165.738C256.449 163.146 255.805 143.664 255.119 133.095C250.694 134.225 246.339 135.624 242.077 137.285C243.632 147.177 247.582 168.503 252.163 165.738Z" fill="#E23C40" stroke="#263238" stroke-width="1.1133" stroke-miterlimit="10"/>
<path d="M293.642 156.782C298.027 158.366 300.492 142.167 301.879 129.697C297.451 128.955 292.974 128.565 288.487 128.53C288.347 138.768 288.893 155.068 293.642 156.782Z" fill="#E23C40" stroke="#263238" stroke-width="1.1133" stroke-miterlimit="10"/>
<path d="M287.772 212.853C283.681 211.748 279.334 212.299 275.627 214.394C275.464 214.491 275.326 214.625 275.223 214.786C275.12 214.947 275.055 215.131 275.033 215.323C275.011 215.514 275.033 215.708 275.098 215.89C275.162 216.071 275.266 216.234 275.403 216.367L282.841 223.566C282.981 223.701 283.149 223.799 283.333 223.853C283.517 223.907 283.71 223.916 283.898 223.878C284.085 223.84 284.261 223.756 284.411 223.635C284.561 223.513 284.681 223.356 284.76 223.178L288.571 214.538C288.639 214.375 288.672 214.198 288.668 214.02C288.664 213.843 288.622 213.668 288.546 213.508C288.471 213.348 288.362 213.207 288.229 213.094C288.095 212.981 287.939 212.899 287.772 212.853V212.853Z" fill="#E23C40" stroke="#263238" stroke-width="1.1133" stroke-linecap="round" stroke-linejoin="round"/>
<path d="M270.094 200.829C271.116 203.609 270.71 206.344 269.183 206.935C267.656 207.525 265.583 205.768 264.546 203.004C263.51 200.239 263.93 197.489 265.457 196.898C266.984 196.308 269.057 198.065 270.094 200.829Z" fill="#263238"/>
<path d="M290.378 198.858C289.846 201.738 290.714 204.402 292.325 204.704C293.936 205.006 295.674 202.904 296.206 199.981C296.738 197.058 295.87 194.452 294.259 194.135C292.648 193.818 290.911 195.949 290.378 198.858Z" fill="#263238"/>
<path d="M284.761 223.164C284.761 223.164 274.815 237.045 265.751 223.077" stroke="#263238" stroke-width="1.1133" stroke-linecap="round" stroke-linejoin="round"/>
<path d="M282.842 223.552C282.842 223.552 289.454 230.593 296.43 226.648C303.406 222.703 299.232 216.568 299.232 216.568" stroke="#263238" stroke-width="1.1133" stroke-linecap="round" stroke-linejoin="round"/>
<path d="M252.513 189.742C252.513 189.742 254.951 180.785 266.452 182.931" stroke="#263238" stroke-width="3.33991" stroke-linecap="round" stroke-linejoin="round"/>
<path d="M287.367 181.506C287.367 181.506 296.08 176.135 304.093 184.731" stroke="#263238" stroke-width="3.33991" stroke-linecap="round" stroke-linejoin="round"/>
<path d="M245.887 213.761L254.25 215.906" stroke="#263238" stroke-width="1.1133" stroke-miterlimit="10" stroke-linecap="round"/>
<path d="M253.2 219.131L245.887 220.556" stroke="#263238" stroke-width="1.1133" stroke-miterlimit="10" stroke-linecap="round"/>
<path d="M254.601 223.077L249.375 225.943" stroke="#263238" stroke-width="1.1133" stroke-miterlimit="10" stroke-linecap="round"/>
<path d="M307.581 209.815L314.907 208.015" stroke="#263238" stroke-width="1.1133" stroke-miterlimit="10" stroke-linecap="round"/>
<path d="M308.982 213.4H313.857" stroke="#263238" stroke-width="1.1133" stroke-miterlimit="10" stroke-linecap="round"/>
<path d="M310.019 216.986L316.645 218.772" stroke="#263238" stroke-width="1.1133" stroke-miterlimit="10" stroke-linecap="round"/>
</svg>
