<svg width="587" height="593" viewBox="0 0 587 593" fill="none" xmlns="http://www.w3.org/2000/svg">
<path d="M548.745 64.2322C549.349 59.5061 543.115 55.61 538.444 55.2021C536.213 55.0192 533.89 55.3849 531.777 54.5972C527.197 52.8812 525.36 46.5376 520.898 44.5122C517.552 43.0072 513.706 44.3434 510.465 46.1016C507.224 47.8598 504.035 50.04 500.413 50.3213C497.263 50.5323 493.851 49.2804 491.095 50.9402C489.035 52.1639 487.959 54.6957 486.069 56.1867C484.099 57.4871 481.821 58.1513 479.507 58.0996C477.205 58.0336 474.912 58.4345 472.749 59.2811C470.649 60.3079 468.93 62.685 469.363 65.1043L548.745 64.2322Z" fill="#FAFAFA"/>
<path d="M399.771 386.573C399.994 386.573 400.375 386.489 400.834 386.39C401.244 386.316 401.647 386.208 402.041 386.067C402.229 386.003 402.413 385.928 402.593 385.842C402.806 385.733 402.998 385.58 403.157 385.392C403.826 384.477 415.663 355.263 416.542 352.45C416.676 352.018 416.782 351.576 416.857 351.128V351.24C416.956 350.61 416.906 349.963 416.711 349.358C416.516 348.754 416.183 348.211 415.742 347.78L396.438 387.164H392.501L381.648 387.755C381.443 387.766 381.249 387.861 381.107 388.021C380.965 388.18 380.887 388.392 380.887 388.613V393.198C372.711 397.784 359.01 405.703 357.37 406.87C357.017 407.118 356.679 407.39 356.36 407.686H356.465C356.02 408.111 355.684 408.651 355.487 409.253C355.289 409.856 355.237 410.502 355.336 411.132L386.832 396.208L386.162 430.458V434.312V436.534V437.252L385.585 476.115H395.939L393.813 437.209V436.928L393.669 434.312L393.419 429.614L391.503 394.647H392.527H396.07C396.07 395.238 396.202 395.927 396.28 396.686C395.821 397.122 394.181 398.768 394.128 399.753C394.076 400.737 400.112 432.104 400.926 434.917C401.052 435.352 401.201 435.779 401.372 436.197V436.056C401.628 436.635 402.015 437.136 402.499 437.512C402.983 437.888 403.548 438.128 404.141 438.208L398.774 394.309C398.898 394.183 398.995 394.03 399.058 393.86C399.122 393.69 399.15 393.508 399.141 393.325L399.036 390.948C399.18 390.463 399.18 389.942 399.036 389.457V388.556L399.771 386.573Z" fill="#EBEBEB"/>
<path d="M499.757 443.019C500.035 442.992 500.311 442.945 500.583 442.878C500.898 442.819 501.209 442.739 501.515 442.639L501.935 442.456C502.109 442.382 502.263 442.261 502.381 442.105C502.893 441.415 512.027 418.854 512.709 416.674C512.809 416.343 512.888 416.004 512.945 415.661V415.746C513.024 415.259 512.987 414.759 512.838 414.292C512.689 413.825 512.432 413.406 512.092 413.073L497.184 443.441H494.1L485.728 443.905C485.569 443.912 485.419 443.985 485.309 444.108C485.199 444.232 485.137 444.396 485.137 444.566V448.111C478.838 451.641 468.261 457.76 466.988 458.646C466.714 458.844 466.451 459.06 466.201 459.293H466.292C465.949 459.624 465.688 460.042 465.534 460.509C465.381 460.976 465.339 461.477 465.413 461.965L489.691 450.432L489.297 476.903V479.871V481.587V482.135L488.707 512.039H496.699L495.045 482.009V481.798L494.927 479.772L494.73 476.143L493.247 449.152H494.035H496.778C496.778 449.616 496.869 450.136 496.935 450.727C496.581 451.064 495.321 452.33 495.282 453.104C495.242 453.878 499.901 478.056 500.531 480.265C500.629 480.601 500.747 480.93 500.885 481.249V481.095C501.084 481.541 501.383 481.927 501.757 482.217C502.131 482.507 502.567 482.692 503.024 482.754L498.877 448.87C498.973 448.776 499.049 448.66 499.099 448.532C499.148 448.403 499.171 448.264 499.166 448.125L499.087 446.282C499.113 446.072 499.113 445.859 499.087 445.649C499.073 445.472 499.037 445.297 498.982 445.129V444.44C499.205 444.06 499.494 443.567 499.757 443.019Z" fill="#EBEBEB"/>
<path d="M490.426 509.226C457.933 487.776 420.296 474.455 382.133 474.61C343.971 474.765 307.253 488.015 271.899 502.924C217.162 525.978 159.171 561.268 108.135 592.635H573.509C550.451 560.045 522.919 530.69 490.426 509.226Z" fill="#EBEBEB"/>
<path d="M9.06805 592.635C9.06805 592.635 69.8677 525.415 210.981 511.603C352.095 497.791 559.716 592.635 559.716 592.635H9.06805Z" fill="#F5F5F5"/>
<path d="M457.526 122.843C458.773 112.998 445.912 105.036 436.24 104.192C431.634 103.799 426.844 104.558 422.474 102.927C413.012 99.3961 409.233 86.2869 400.007 82.1094C393.105 78.9868 385.152 81.7718 378.472 85.3867C371.793 89.0016 365.165 93.5307 357.685 94.0511C351.124 94.4872 344.129 91.9132 338.433 95.317C334.195 97.8489 331.977 103.081 328.066 106.176C324.155 109.27 319.26 109.833 314.51 110.114C309.759 110.395 304.864 110.438 300.547 112.561C296.229 114.685 292.673 119.594 293.539 124.574L457.526 122.843Z" fill="#EBEBEB"/>
<path d="M94.2374 314.881H108.502C109.229 314.917 109.915 315.251 110.418 315.814C110.921 316.377 111.203 317.125 111.206 317.905L111.77 331.127C111.804 331.531 111.763 331.94 111.65 332.327C111.536 332.715 111.352 333.075 111.108 333.386C110.864 333.697 110.565 333.954 110.228 334.14C109.891 334.327 109.523 334.441 109.145 334.474L94.2899 334.699L94.2374 314.881Z" fill="#E0E0E0"/>
<path d="M125.917 331.197C128.765 331.478 206.585 317.835 213.724 315.88C221.755 313.685 222.228 307.131 222.228 307.131L104.841 318.186L104.369 325.571L118.305 324.389C118.305 324.389 123.069 330.902 125.917 331.197Z" fill="#F5F5F5"/>
<path d="M213.724 315.88C214.819 315.574 215.893 315.189 216.939 314.727L211.939 315.149L118.305 324.39C118.305 324.39 123.069 330.902 125.917 331.197C128.764 331.493 206.559 317.835 213.724 315.88Z" fill="#EBEBEB"/>
<path d="M108.135 325.262C108.135 325.051 118.804 323.855 131.98 322.603C145.155 321.351 155.864 320.479 155.89 320.676C155.916 320.873 145.234 322.083 132.045 323.335C118.856 324.586 108.135 325.459 108.135 325.262Z" fill="#E0E0E0"/>
<path d="M79.1327 334.7L75.9044 550.903H103.384L91.5078 334.7H79.1327Z" fill="#F5F5F5"/>
<path d="M79.1326 334.7L78.7389 360.989L92.2426 348.034L91.5077 334.7H79.1326Z" fill="#E0E0E0"/>
<path d="M63.4243 318.735V332.435C63.4243 333.035 63.6469 333.611 64.0431 334.036C64.4393 334.461 64.9767 334.699 65.5371 334.699H94.2375V314.881L65.3665 316.456C64.8351 316.506 64.3404 316.767 63.9806 317.189C63.6209 317.611 63.4223 318.163 63.4243 318.735V318.735Z" fill="#F5F5F5"/>
<path d="M91.6915 303.531C89.5262 301.533 18.5955 264.569 11.7189 261.756C3.97626 258.605 0.0655518 263.669 0.0655518 263.669L101.914 327.175L106.284 321.436L94.2505 313.799C94.2505 313.799 93.8568 305.528 91.6915 303.531Z" fill="#F5F5F5"/>
<path d="M11.7189 261.756C10.6618 261.334 9.57871 260.991 8.47748 260.729L12.7819 263.472L94.2505 313.799C94.2505 313.799 93.8568 305.528 91.6259 303.531C89.3949 301.533 18.5954 264.569 11.7189 261.756Z" fill="#EBEBEB"/>
<path d="M63.9885 295.105C64.5655 295.353 65.1192 295.659 65.642 296.019L70.0777 298.72L84.6313 307.581C90.3267 311.027 95.4448 314.22 99.0668 316.625C100.891 317.835 102.361 318.82 103.358 319.537C103.903 319.867 104.413 320.259 104.88 320.704C104.304 320.45 103.75 320.14 103.227 319.776L98.8174 317.075L84.2507 308.214C78.5684 304.768 73.4372 301.575 69.8152 299.17C67.978 297.974 66.5213 296.976 65.5108 296.258C64.9696 295.928 64.4598 295.542 63.9885 295.105V295.105Z" fill="#E0E0E0"/>
<path d="M77.7416 427.49H96.6128L97.2952 439.966H77.5579L77.7416 427.49Z" fill="#EBEBEB"/>
<path d="M77.4923 444.426H97.5313L97.7151 447.661L77.4398 447.745L77.4923 444.426Z" fill="#EBEBEB"/>
<path d="M100.983 350.453C101.521 353.463 135.733 429.615 139.499 436.408C143.738 444.032 149.735 442.667 149.735 442.667L106.665 325.107L99.9197 326.71L104.92 340.692C104.92 340.692 100.445 347.471 100.983 350.453Z" fill="#F5F5F5"/>
<path d="M139.499 436.408C140.085 437.443 140.733 438.434 141.442 439.376L139.631 434.355L104.893 340.692C104.893 340.692 100.418 347.443 100.957 350.453C101.495 353.463 135.694 429.615 139.499 436.408Z" fill="#EBEBEB"/>
<path d="M99.6836 326.077C99.9996 326.621 100.268 327.196 100.484 327.793L102.439 332.674C104.08 336.795 106.271 342.52 108.62 348.892C110.97 355.263 113.03 361.044 114.447 365.278C115.143 367.388 115.759 369.104 116.048 370.299C116.264 370.909 116.423 371.541 116.521 372.184C116.228 371.615 115.986 371.017 115.799 370.398C115.326 369.104 114.71 367.444 113.988 365.461L107.991 349.159C105.681 342.857 103.581 337.175 101.993 332.871L100.261 327.906C100.003 327.322 99.8092 326.709 99.6836 326.077V326.077Z" fill="#E0E0E0"/>
<path d="M107.846 323.208C107.846 324.615 108.948 327.428 108.161 328.314C107.374 329.2 104.723 328.919 103.358 328.919C100.878 328.919 98.8568 326.359 98.8568 323.208C98.8568 320.057 100.878 317.511 103.358 317.511C105.03 317.335 106.719 317.478 108.345 317.933C109.447 318.327 107.846 321.801 107.846 323.208Z" fill="#F5F5F5"/>
<path d="M111.14 323.208C111.14 326.359 109.132 328.918 106.652 328.918C104.172 328.918 102.151 326.359 102.151 323.208C102.151 320.057 104.172 317.511 106.652 317.511C109.132 317.511 111.14 320.071 111.14 323.208Z" fill="#E0E0E0"/>
<path d="M102.413 317.511C102.954 317.368 103.51 317.307 104.067 317.329H105.956C106.311 317.329 106.704 317.258 107.151 317.329C107.604 317.389 108.046 317.521 108.463 317.722V317.722C109.328 318.202 110.059 318.918 110.585 319.797C111.11 320.676 111.41 321.687 111.455 322.73C111.528 323.629 111.428 324.535 111.162 325.391C110.895 326.248 110.468 327.036 109.907 327.709C109.463 328.252 108.902 328.67 108.273 328.927C107.644 329.184 106.966 329.273 106.298 329.186V329.186C105.297 329.226 104.294 329.16 103.306 328.989C104.277 328.774 105.267 328.675 106.258 328.694C106.843 328.736 107.429 328.631 107.969 328.386C108.509 328.142 108.989 327.766 109.368 327.287C109.853 326.672 110.218 325.96 110.443 325.192C110.669 324.424 110.749 323.616 110.681 322.814C110.636 321.889 110.371 320.991 109.912 320.206C109.453 319.42 108.814 318.774 108.056 318.327V318.327C107.702 318.135 107.321 318.007 106.928 317.947C106.552 317.926 106.175 317.926 105.799 317.947L103.909 317.863C103.398 317.82 102.895 317.701 102.413 317.511V317.511Z" fill="#E0E0E0"/>
<path d="M106.271 328.835C105.6 328.818 104.953 328.56 104.434 328.103C103.757 327.616 103.185 326.98 102.755 326.237C102.326 325.494 102.049 324.662 101.943 323.795C101.838 322.929 101.906 322.048 102.143 321.212C102.38 320.376 102.781 319.603 103.319 318.946C104.145 317.948 104.893 317.666 104.92 317.737C104.946 317.807 104.355 318.271 103.699 319.27C102.808 320.541 102.416 322.136 102.608 323.713C102.799 325.29 103.558 326.724 104.723 327.709C105.602 328.469 106.311 328.722 106.271 328.835Z" fill="#E0E0E0"/>
<path d="M104.303 328.933C103.593 329.127 102.842 329.037 102.19 328.68C101.356 328.346 100.608 327.807 100.004 327.106C99.4009 326.405 98.96 325.562 98.7173 324.644C98.4745 323.727 98.4367 322.761 98.6068 321.825C98.7769 320.889 99.1503 320.009 99.6966 319.256C100.523 318.102 101.337 317.765 101.363 317.849C101.39 317.934 100.746 318.426 100.051 319.565C99.6061 320.276 99.3112 321.082 99.1865 321.928C99.0618 322.773 99.1104 323.638 99.329 324.461C99.5476 325.284 99.9308 326.046 100.452 326.695C100.973 327.343 101.62 327.862 102.347 328.216C103.502 328.792 104.316 328.82 104.303 328.933Z" fill="#E0E0E0"/>
<path d="M245.548 363.056H254.393C254.843 363.074 255.269 363.28 255.58 363.629C255.891 363.979 256.063 364.444 256.059 364.927L256.414 373.113C256.435 373.367 256.409 373.622 256.337 373.865C256.265 374.108 256.149 374.333 255.995 374.527C255.841 374.72 255.653 374.879 255.44 374.994C255.228 375.109 254.997 375.177 254.76 375.195L245.574 375.321L245.548 363.056Z" fill="#E0E0E0"/>
<path d="M248.198 383.634C248.094 385.533 258.041 436.788 259.353 441.472C260.836 446.732 264.602 446.873 264.602 446.873L255.114 369.315L250.836 369.188L251.899 378.401C251.899 378.401 248.29 381.735 248.198 383.634Z" fill="#F5F5F5"/>
<path d="M259.353 441.471C259.557 442.188 259.807 442.888 260.101 443.567L259.734 440.262L251.86 378.373C251.86 378.373 248.225 381.707 248.133 383.605C248.041 385.504 258.041 436.788 259.353 441.471Z" fill="#EBEBEB"/>
<path d="M251.177 371.664C251.361 371.664 252.385 378.697 253.461 387.389C254.537 396.082 255.272 403.185 255.075 403.213C254.878 403.241 253.868 396.18 252.792 387.474C251.715 378.767 250.954 371.692 251.177 371.664Z" fill="#E0E0E0"/>
<path d="M236.191 375.321L234.196 509.24H251.217L243.868 375.321H236.191Z" fill="#F5F5F5"/>
<path d="M236.191 375.321L235.955 391.609L244.314 383.592L243.868 375.321H236.191Z" fill="#E0E0E0"/>
<path d="M226.466 365.433V373.873C226.466 374.246 226.605 374.604 226.851 374.867C227.097 375.131 227.431 375.279 227.779 375.279H245.548V363.014L227.713 363.985C227.37 364.003 227.047 364.165 226.813 364.436C226.58 364.707 226.456 365.065 226.466 365.433Z" fill="#F5F5F5"/>
<path d="M263.264 360.201C264.353 358.71 283.815 310.69 285.258 306.048C286.872 300.83 283.854 298.368 283.854 298.368L249.865 367.613L253.29 370.356L257.385 362.17C257.385 362.17 262.162 361.692 263.264 360.201Z" fill="#F5F5F5"/>
<path d="M285.298 306.048C285.508 305.333 285.679 304.605 285.81 303.868L284.34 306.794L257.437 362.17C257.437 362.17 262.201 361.692 263.303 360.201C264.406 358.71 283.815 310.69 285.298 306.048Z" fill="#EBEBEB"/>
<path d="M267.384 341.606C266.867 343.037 266.248 344.424 265.534 345.755L260.849 355.672C258.999 359.54 257.28 363.014 255.967 365.518C255.318 366.894 254.559 368.207 253.697 369.442C254.207 367.984 254.826 366.573 255.547 365.222L260.232 355.306C262.083 351.438 263.802 347.964 265.114 345.46C265.764 344.106 266.523 342.816 267.384 341.606V341.606Z" fill="#E0E0E0"/>
<path d="M235.338 432.808H247.017L247.45 440.53H235.22L235.338 432.808Z" fill="#EBEBEB"/>
<path d="M235.18 443.301H247.595L247.7 445.284L235.154 445.34L235.18 443.301Z" fill="#EBEBEB"/>
<path d="M236.414 367.599C234.682 368.049 191.624 392.748 187.858 395.435C183.567 398.445 184.512 402.383 184.512 402.383L251.177 370.693L250.075 366.263L242.201 369.962C242.201 369.962 238.133 367.163 236.414 367.599Z" fill="#F5F5F5"/>
<path d="M187.806 395.435C187.22 395.861 186.663 396.331 186.139 396.842L188.987 395.519L242.149 369.976C242.149 369.976 238.133 367.163 236.414 367.613C234.695 368.063 191.625 392.748 187.806 395.435Z" fill="#EBEBEB"/>
<path d="M250.456 366.094C249.277 366.898 248.039 367.599 246.755 368.19C244.419 369.413 241.178 371.003 237.569 372.761C233.96 374.519 230.653 375.996 228.251 376.981C226.985 377.605 225.667 378.099 224.314 378.457C225.53 377.715 226.793 377.067 228.094 376.516L237.28 372.058C240.889 370.342 244.157 368.78 246.545 367.697C247.802 367.041 249.111 366.504 250.456 366.094Z" fill="#E0E0E0"/>
<path d="M253.986 368.218C253.986 369.09 254.655 370.806 254.183 371.369C253.71 371.932 252.044 371.749 251.204 371.749C250.446 371.585 249.764 371.146 249.274 370.505C248.784 369.864 248.517 369.061 248.517 368.232C248.517 367.404 248.784 366.601 249.274 365.96C249.764 365.319 250.446 364.879 251.204 364.716C252.238 364.602 253.282 364.688 254.288 364.969C254.957 365.18 253.986 367.332 253.986 368.218Z" fill="#F5F5F5"/>
<path d="M256.02 368.218C255.93 368.787 255.69 369.316 255.329 369.743C254.968 370.17 254.5 370.478 253.982 370.629C253.463 370.781 252.914 370.771 252.401 370.6C251.887 370.429 251.43 370.104 251.083 369.663C250.736 369.223 250.513 368.686 250.442 368.114C250.37 367.543 250.453 366.962 250.679 366.439C250.906 365.916 251.267 365.473 251.72 365.163C252.173 364.853 252.7 364.688 253.238 364.688C254.041 364.767 254.784 365.181 255.304 365.842C255.825 366.503 256.082 367.356 256.02 368.218V368.218Z" fill="#E0E0E0"/>
<path d="M250.613 364.688C250.613 364.617 250.994 364.547 251.637 364.491L252.805 364.42C253.028 364.42 253.264 364.42 253.566 364.42C253.861 364.452 254.15 364.538 254.419 364.674V364.674C254.974 364.98 255.444 365.438 255.783 366.001C256.122 366.564 256.316 367.212 256.348 367.881C256.391 368.456 256.324 369.036 256.15 369.582C255.977 370.129 255.7 370.632 255.337 371.059C255.05 371.405 254.688 371.669 254.283 371.828C253.878 371.988 253.442 372.038 253.015 371.974V371.974C252.387 372.024 251.755 371.952 251.151 371.763C251.738 371.553 252.357 371.462 252.975 371.495V371.495C253.322 371.508 253.668 371.435 253.984 371.281C254.3 371.127 254.579 370.898 254.799 370.609C255.089 370.242 255.307 369.816 255.442 369.357C255.578 368.899 255.627 368.416 255.587 367.937C255.562 367.39 255.412 366.858 255.148 366.39C254.885 365.921 254.517 365.529 254.078 365.25V365.25C253.669 365.041 253.217 364.949 252.765 364.983L251.584 364.899C251.251 364.893 250.922 364.821 250.613 364.688V364.688Z" fill="#E0E0E0"/>
<path d="M253.001 371.692C253.001 371.777 252.49 371.692 251.807 371.313C251.368 371.013 250.995 370.612 250.715 370.141C250.436 369.669 250.257 369.137 250.19 368.583C250.124 368.028 250.172 367.465 250.331 366.933C250.491 366.401 250.757 365.913 251.112 365.504C251.65 364.885 252.135 364.744 252.175 364.814C252.214 364.885 251.86 365.208 251.492 365.827C250.98 366.601 250.759 367.554 250.873 368.495C250.987 369.437 251.429 370.297 252.109 370.905C252.621 371.383 253.041 371.58 253.001 371.692Z" fill="#E0E0E0"/>
<path d="M251.794 371.763C251.794 371.847 251.256 371.988 250.482 371.678C249.947 371.474 249.464 371.137 249.074 370.695C248.684 370.252 248.398 369.717 248.238 369.133C248.09 368.545 248.072 367.929 248.186 367.333C248.3 366.737 248.542 366.178 248.894 365.701C249.445 364.983 249.97 364.8 250.009 364.885C250.049 364.969 249.668 365.293 249.301 365.996C248.81 366.88 248.663 367.937 248.894 368.936C249.036 369.423 249.267 369.875 249.574 370.266C249.88 370.657 250.256 370.98 250.679 371.214C251.296 371.594 251.794 371.636 251.794 371.763Z" fill="#E0E0E0"/>
<path d="M287.922 56.313C288.697 50.2929 280.77 45.3418 274.799 44.8354C271.951 44.5822 269.012 45.0464 266.322 44.0477C260.495 41.8676 258.159 33.808 252.477 31.234C248.225 29.307 243.29 31.023 239.209 33.2453C235.128 35.4677 231.02 38.2668 226.414 38.5762C222.411 38.8575 218.068 37.2681 214.603 39.3639C211.979 40.9252 210.666 44.1462 208.212 46.0451C205.758 47.9439 202.792 48.3096 199.866 48.4784C196.939 48.6472 193.921 48.6753 191.27 49.9834C188.619 51.2915 186.401 54.3016 186.953 57.382L287.922 56.313Z" fill="#F5F5F5"/>
<path d="M539.375 240.249C540.779 240.179 527.486 257.044 527.486 257.044H533.116L528.417 270.279L542.512 253.007H536.462L539.375 240.249Z" fill="#E0E0E0"/>
<path d="M561.882 255.272C561.868 255.113 561.868 254.953 561.882 254.793C561.882 254.456 561.816 254.006 561.777 253.387C561.749 252.645 561.67 251.907 561.54 251.179C561.415 250.18 561.222 249.193 560.963 248.225C560.332 245.536 559.323 242.965 557.971 240.601C554.788 234.905 549.852 230.576 544.012 228.36C538.172 226.145 531.794 226.181 525.977 228.463C524.789 228.924 523.632 229.469 522.512 230.094C521.383 230.768 520.296 231.52 519.258 232.345C518.202 233.189 517.198 234.105 516.252 235.087C515.315 236.13 514.438 237.234 513.628 238.393C511.98 240.775 510.7 243.425 509.835 246.242C508.015 252.07 508.015 258.375 509.835 264.203C510.706 267.017 511.986 269.666 513.628 272.052C514.438 273.211 515.315 274.315 516.252 275.357C517.196 276.364 518.2 277.304 519.258 278.17C520.296 278.995 521.383 279.747 522.512 280.421C523.632 281.046 524.789 281.591 525.977 282.053C530.449 283.794 535.272 284.231 539.953 283.318C544.029 282.51 547.872 280.689 551.173 278.002C553.898 275.793 556.205 273.048 557.971 269.914C559.323 267.55 560.332 264.979 560.963 262.29C561.222 261.322 561.415 260.335 561.54 259.337C561.67 258.608 561.749 257.87 561.777 257.128C561.777 256.552 561.855 256.102 561.882 255.722C561.867 255.567 561.867 255.412 561.882 255.258C561.896 255.412 561.896 255.567 561.882 255.722C561.882 256.073 561.882 256.523 561.882 257.128C561.882 257.878 561.821 258.627 561.698 259.365C561.605 260.377 561.433 261.379 561.186 262.361C560.585 265.089 559.598 267.702 558.26 270.111C555.06 275.948 550.055 280.401 544.112 282.695C538.169 284.99 531.665 284.981 525.727 282.671C524.507 282.209 523.318 281.655 522.171 281.012C521.011 280.332 519.897 279.566 518.838 278.719C517.746 277.859 516.711 276.919 515.741 275.906C514.797 274.844 513.921 273.716 513.116 272.53C511.402 270.097 510.072 267.379 509.179 264.485C507.306 258.507 507.306 252.037 509.179 246.059C510.086 243.175 511.415 240.464 513.116 238.027C513.921 236.841 514.797 235.714 515.741 234.651C516.711 233.638 517.746 232.698 518.838 231.838C519.897 230.991 521.011 230.225 522.171 229.546C527.655 226.481 533.936 225.466 540.018 226.662C543.797 227.442 547.377 229.075 550.522 231.451C553.667 233.828 556.305 236.894 558.26 240.446C559.599 242.859 560.586 245.478 561.186 248.211C561.433 249.193 561.605 250.195 561.698 251.207C561.821 251.945 561.882 252.693 561.882 253.443C561.882 254.006 561.882 254.47 561.882 254.85C561.893 254.99 561.893 255.131 561.882 255.272V255.272Z" fill="#E0E0E0"/>
<path d="M517.328 277.017C514.79 279.806 512.094 282.427 509.258 284.865C506.568 287.486 503.727 289.924 500.754 292.165C503.278 289.365 505.97 286.743 508.811 284.317C511.501 281.69 514.346 279.251 517.328 277.017V277.017Z" fill="#E0E0E0"/>
<path d="M502.237 292.011C502.237 292.289 502.16 292.561 502.016 292.792C501.871 293.023 501.666 293.204 501.427 293.31C501.187 293.417 500.923 293.444 500.668 293.39C500.414 293.336 500.18 293.202 499.997 293.005C499.813 292.808 499.688 292.558 499.637 292.285C499.587 292.012 499.613 291.729 499.712 291.472C499.811 291.215 499.98 290.996 500.195 290.841C500.411 290.686 500.665 290.604 500.924 290.604C501.273 290.604 501.606 290.752 501.852 291.016C502.099 291.28 502.237 291.638 502.237 292.011Z" fill="#E0E0E0"/>
<path d="M332.266 239.503H353.617C354.704 239.557 355.731 240.058 356.483 240.901C357.236 241.744 357.657 242.865 357.659 244.032L358.499 263.822C358.549 264.429 358.487 265.04 358.316 265.62C358.145 266.201 357.869 266.739 357.503 267.204C357.137 267.67 356.689 268.053 356.184 268.332C355.679 268.611 355.128 268.78 354.562 268.83L332.462 269.153L332.266 239.503Z" fill="#FF725E"/>
<path opacity="0.5" d="M332.266 239.503H353.617C354.704 239.557 355.731 240.058 356.483 240.901C357.236 241.744 357.657 242.865 357.659 244.032L358.499 263.822C358.549 264.429 358.487 265.04 358.316 265.62C358.145 266.201 357.869 266.739 357.503 267.204C357.137 267.67 356.689 268.053 356.184 268.332C355.679 268.611 355.128 268.78 354.562 268.83L332.462 269.153L332.266 239.503Z" fill="black"/>
<path d="M338.644 289.225C338.42 293.81 362.423 417.63 365.612 428.939C369.194 441.598 378.354 441.992 378.354 441.992L355.428 254.638L345.1 254.342L347.646 276.594C347.646 276.594 338.867 284.64 338.644 289.225Z" fill="#FF725E"/>
<path opacity="0.3" d="M365.612 428.939C366.105 430.665 366.71 432.353 367.423 433.988L366.53 426.013L347.646 276.58C347.646 276.58 338.867 284.64 338.644 289.239C338.42 293.839 362.423 417.63 365.612 428.939Z" fill="black"/>
<path d="M345.783 260.264C345.966 260.264 348.237 277.283 350.835 298.325C353.433 319.367 355.402 336.443 355.218 336.471C355.034 336.499 352.764 319.466 350.153 298.494C347.541 277.522 345.586 260.264 345.783 260.264Z" fill="#263238"/>
<path d="M309.654 269.153L304.838 592.634H345.953L328.197 269.153H309.654Z" fill="#FF725E"/>
<path opacity="0.5" d="M309.654 269.153L309.077 308.481L329.287 289.112L328.197 269.153H309.654Z" fill="black"/>
<path d="M286.164 245.256V265.749C286.164 266.652 286.499 267.518 287.094 268.156C287.69 268.795 288.498 269.153 289.34 269.153H332.266V239.503L289.235 241.866C288.412 241.892 287.631 242.26 287.058 242.893C286.484 243.526 286.164 244.374 286.164 245.256V245.256Z" fill="#FF725E"/>
<path d="M375.034 232.625C377.659 229.01 424.679 113.067 428.17 101.814C432.107 89.1552 424.771 83.2617 424.771 83.2617L342.712 250.516L350.992 257.141L360.874 237.379C360.874 237.379 372.383 236.225 375.034 232.625Z" fill="#FF725E"/>
<path opacity="0.3" d="M428.17 101.815C428.686 100.091 429.103 98.3337 429.416 96.5542L425.847 103.587L360.874 237.337C360.874 237.337 372.383 236.184 375.034 232.583C377.685 228.982 424.679 113.025 428.17 101.815Z" fill="black"/>
<path d="M385.034 187.685C384.961 187.934 384.864 188.175 384.745 188.402C384.483 188.923 384.181 189.57 383.8 190.372C382.908 192.158 381.714 194.591 380.257 197.573C377.278 203.65 373.236 212.103 368.787 221.485C364.339 230.867 360.231 239.25 357.134 245.27C355.599 248.28 354.326 250.713 353.407 252.373L352.344 254.272C352.234 254.5 352.098 254.713 351.937 254.905C352.009 254.66 352.106 254.424 352.226 254.201L353.171 252.232L356.714 245.031C359.693 238.94 363.735 230.501 368.184 221.119C372.632 211.737 376.74 203.368 379.837 197.334C381.373 194.324 382.645 191.905 383.564 190.301C383.984 189.523 384.338 188.89 384.627 188.402C384.723 188.14 384.86 187.897 385.034 187.685V187.685Z" fill="#263238"/>
<path opacity="0.4" d="M307.594 407.981H335.822L336.833 426.66H307.305L307.594 407.981Z" fill="white"/>
<path opacity="0.4" d="M307.214 433.327H337.213L337.476 438.151L307.135 438.292L307.214 433.327Z" fill="white"/>
<g opacity="0.4">
<path d="M332.266 254.328C332.266 254.539 321.951 254.905 309.221 255.158C296.492 255.411 286.164 255.468 286.164 255.271C286.164 255.074 296.479 254.694 309.208 254.427C321.938 254.159 332.266 254.131 332.266 254.328Z" fill="white"/>
</g>
<path d="M310.232 250.502C306.059 251.571 202.031 311.252 192.819 317.722C182.438 324.994 184.735 334.516 184.735 334.516L345.927 257.985L343.302 247.267L324.116 256.185C324.116 256.185 314.353 249.447 310.232 250.502Z" fill="#FF725E"/>
<path opacity="0.2" d="M192.779 317.722C191.369 318.72 190.023 319.82 188.751 321.013L195.64 317.834L324.051 256.185C324.051 256.185 314.353 249.447 310.192 250.558C306.032 251.67 201.992 311.251 192.779 317.722Z" fill="black"/>
<path d="M344.103 246.859C343.337 247.351 342.543 247.793 341.727 248.182L335.022 251.599C329.352 254.413 321.505 258.309 312.778 262.486C304.051 266.664 296.124 270.349 290.324 272.895C287.437 274.175 285.075 275.173 283.434 275.849L281.545 276.58C281.33 276.69 281.099 276.761 280.862 276.791C281.059 276.648 281.27 276.53 281.492 276.439L283.342 275.581L290.14 272.417L312.45 261.811L334.759 251.121L341.544 247.928C342.372 247.507 343.227 247.15 344.103 246.859V246.859Z" fill="#263238"/>
<path d="M352.633 251.965C352.633 254.089 354.273 258.253 353.105 259.603C352.121 260.742 347.961 260.503 345.914 260.503C342.2 260.503 339.182 256.677 339.182 251.965C339.182 247.253 342.2 243.442 345.914 243.442C348.414 243.177 350.938 243.391 353.368 244.075C354.995 244.665 352.633 249.856 352.633 251.965Z" fill="#FF725E"/>
<path d="M357.567 251.965C357.567 256.677 354.549 260.503 350.835 260.503C347.121 260.503 344.116 256.677 344.116 251.965C344.116 247.253 347.121 243.441 350.835 243.441C354.549 243.441 357.567 247.253 357.567 251.965Z" fill="#FF725E"/>
<path opacity="0.5" d="M357.567 251.965C357.567 256.677 354.549 260.503 350.835 260.503C347.121 260.503 344.116 256.677 344.116 251.965C344.116 247.253 347.121 243.441 350.835 243.441C354.549 243.441 357.567 247.253 357.567 251.965Z" fill="black"/>
<path d="M344.496 243.385C345.312 243.241 346.138 243.18 346.964 243.202H349.798H350.638C350.947 243.153 351.261 243.153 351.57 243.202C352.242 243.282 352.898 243.477 353.512 243.779V243.779C354.775 244.498 355.842 245.557 356.608 246.852C357.374 248.146 357.813 249.632 357.882 251.163C357.99 252.482 357.845 253.81 357.454 255.066C357.064 256.322 356.437 257.478 355.612 258.463C354.968 259.259 354.155 259.875 353.241 260.26C352.326 260.644 351.339 260.786 350.363 260.672V260.672C348.958 260.672 347.843 260.672 347.082 260.601C346.685 260.621 346.288 260.583 345.901 260.489C346.282 260.382 346.675 260.33 347.069 260.334L350.323 260.179C351.222 260.248 352.124 260.088 352.954 259.711C353.785 259.335 354.52 258.753 355.1 258.013C355.851 257.084 356.419 256.002 356.771 254.833C357.122 253.663 357.25 252.429 357.147 251.205C357.082 249.801 356.687 248.436 355.999 247.239C355.31 246.042 354.351 245.05 353.21 244.355V244.355C352.66 244.068 352.071 243.873 351.465 243.779C351.182 243.744 350.895 243.744 350.612 243.779H349.772L346.937 243.694C346.116 243.678 345.299 243.574 344.496 243.385Z" fill="#263238"/>
<path d="M350.271 260.376C349.305 260.252 348.394 259.832 347.646 259.167C346.661 258.438 345.83 257.496 345.206 256.402C344.583 255.308 344.181 254.085 344.026 252.813C343.871 251.542 343.968 250.249 344.309 249.02C344.65 247.791 345.228 246.652 346.006 245.678C346.581 244.817 347.38 244.157 348.302 243.779C348.381 243.891 347.41 244.496 346.386 245.987C345.705 246.934 345.204 248.016 344.913 249.171C344.622 250.326 344.546 251.531 344.69 252.717C344.834 253.903 345.195 255.047 345.751 256.084C346.308 257.121 347.05 258.03 347.935 258.759C348.687 259.34 349.467 259.88 350.271 260.376Z" fill="#263238"/>
<path d="M347.331 260.531C347.331 260.531 347.029 260.629 346.478 260.601C345.702 260.541 344.939 260.347 344.221 260.024C342.998 259.523 341.9 258.722 341.016 257.687C340.132 256.651 339.485 255.409 339.127 254.059C338.769 252.708 338.71 251.287 338.954 249.908C339.198 248.529 339.739 247.23 340.533 246.114C340.986 245.43 341.546 244.836 342.187 244.355C342.633 244.018 342.909 243.891 342.935 243.919C342.207 244.693 341.535 245.525 340.927 246.409C340.237 247.483 339.776 248.708 339.578 249.995C339.38 251.282 339.45 252.6 339.782 253.855C340.114 255.109 340.701 256.27 341.5 257.254C342.299 258.238 343.291 259.021 344.405 259.546C345.353 259.961 346.332 260.291 347.331 260.531V260.531Z" fill="#263238"/>
<path opacity="0.5" d="M236.165 298.368L242.241 307.173L272.621 292.755L264.957 284.541L236.165 298.368Z" fill="black"/>
<path opacity="0.5" d="M308.066 375.053C308.066 375.053 310.429 379.16 316.793 382.367C324.982 386.474 332.318 377.36 331.793 367.683L308.447 342.983L308.066 375.053Z" fill="black"/>
<path d="M168.502 198.065H192.346C193.562 198.127 194.708 198.687 195.548 199.63C196.389 200.572 196.859 201.825 196.861 203.129L197.806 225.24C197.865 225.926 197.795 226.618 197.601 227.275C197.407 227.932 197.092 228.54 196.675 229.065C196.258 229.589 195.747 230.019 195.173 230.328C194.598 230.638 193.972 230.821 193.331 230.866L168.646 231.232L168.502 198.065Z" fill="#FF725E"/>
<path opacity="0.5" d="M168.502 198.065H192.346C193.562 198.127 194.708 198.687 195.548 199.63C196.389 200.572 196.859 201.825 196.861 203.129L197.806 225.24C197.865 225.926 197.795 226.618 197.601 227.275C197.407 227.932 197.092 228.54 196.675 229.065C196.258 229.589 195.747 230.019 195.173 230.328C194.598 230.638 193.972 230.821 193.331 230.866L168.646 231.232L168.502 198.065Z" fill="black"/>
<path d="M200.076 256.213C202.701 260.517 300.389 355.39 310.206 363.365C321.255 372.325 329.733 366.178 329.733 366.178L194 213.144L184.486 220.177L200.443 238.462C200.443 238.462 197.464 251.923 200.076 256.213Z" fill="#FF725E"/>
<path opacity="0.3" d="M310.232 363.365C311.746 364.566 313.328 365.665 314.969 366.656L309.248 360.13L200.443 238.462C200.443 238.462 197.464 251.923 200.076 256.213C202.687 260.503 300.389 355.389 310.232 363.365Z" fill="black"/>
<path d="M188.764 225.1C188.895 224.959 201.388 238.757 216.664 255.917C231.939 273.078 244.222 287.115 244.078 287.256C243.934 287.396 231.44 273.598 216.165 256.424C200.89 239.25 188.633 225.212 188.764 225.1Z" fill="#263238"/>
<path d="M143.253 231.204L137.859 592.634H183.803L163.961 231.204H143.253Z" fill="#FF725E"/>
<path opacity="0.5" d="M143.253 231.204L142.032 313.164L166.599 279.28L163.961 231.204H143.253Z" fill="black"/>
<path d="M116.993 204.493V227.406C116.993 228.414 117.366 229.38 118.031 230.092C118.695 230.804 119.597 231.204 120.536 231.204H168.502V198.065L120.353 200.71C119.447 200.76 118.595 201.18 117.97 201.884C117.345 202.588 116.995 203.522 116.993 204.493V204.493Z" fill="#FF725E"/>
<path d="M192.819 164.857C192.583 159.737 152.623 25.0725 147.872 12.9479C142.518 -0.751978 132.295 0.00756742 132.295 0.00756742L177.872 205.366L189.394 204.409L184.144 179.991C184.144 179.991 193.055 169.977 192.819 164.857Z" fill="#FF725E"/>
<path opacity="0.3" d="M147.872 12.9056C147.133 11.0455 146.278 9.24095 145.313 7.50439L147.163 16.2532L184.171 180.005C184.171 180.005 193.055 169.976 192.819 164.856C192.583 159.737 152.623 25.0724 147.872 12.9056Z" fill="black"/>
<path d="M146.586 238.673C143.384 242.499 83.3977 368.316 78.7783 380.553C73.5291 394.323 81.403 401.497 81.403 401.497L183.856 221.147L175.063 213.144L162.74 234.425C162.74 234.425 149.775 234.861 146.586 238.673Z" fill="#FF725E"/>
<path opacity="0.2" d="M78.7787 380.553C78.0837 382.432 77.505 384.358 77.0464 386.319L81.4821 378.71L162.675 234.425C162.675 234.425 149.775 234.861 146.586 238.644C143.397 242.428 83.3981 368.315 78.7787 380.553Z" fill="black"/>
<path d="M191.27 212.004C191.27 214.367 193.094 219.037 191.795 220.528C190.693 221.794 186.034 221.527 183.751 221.527C179.604 221.527 176.244 217.307 176.244 212.004C176.244 206.701 179.604 202.468 183.751 202.468C186.034 202.468 189 202.032 192.084 203.171C193.908 203.832 191.27 209.627 191.27 212.004Z" fill="#FF725E"/>
<path d="M196.769 212.005C196.769 217.265 193.409 221.527 189.263 221.527C185.116 221.527 181.743 217.307 181.743 212.005C181.743 206.702 185.116 202.468 189.263 202.468C193.409 202.468 196.769 206.73 196.769 212.005Z" fill="#FF725E"/>
<path opacity="0.5" d="M196.769 212.005C196.769 217.265 193.409 221.527 189.263 221.527C185.116 221.527 181.743 217.307 181.743 212.005C181.743 206.702 185.116 202.468 189.263 202.468C193.409 202.468 196.769 206.73 196.769 212.005Z" fill="black"/>
<path d="M182.176 202.468C183.088 202.324 184.01 202.263 184.932 202.285L188.094 202.215H189.039C189.383 202.166 189.732 202.166 190.076 202.215C190.821 202.305 191.548 202.524 192.228 202.862V202.862C193.632 203.664 194.817 204.842 195.668 206.282C196.519 207.722 197.007 209.374 197.084 211.076C197.207 212.546 197.048 214.028 196.614 215.429C196.181 216.83 195.483 218.121 194.564 219.22C193.843 220.106 192.933 220.791 191.912 221.22C190.891 221.648 189.788 221.807 188.698 221.682V221.682H185.037C184.597 221.71 184.155 221.672 183.724 221.569C184.155 221.462 184.595 221.41 185.037 221.415L188.672 221.26C189.681 221.34 190.694 221.162 191.627 220.742C192.56 220.321 193.387 219.67 194.039 218.841C194.883 217.799 195.521 216.586 195.916 215.273C196.31 213.961 196.453 212.576 196.336 211.203C196.271 209.621 195.829 208.084 195.053 206.737C194.276 205.39 193.191 204.279 191.9 203.509V203.509C191.284 203.185 190.624 202.967 189.945 202.862C189.627 202.813 189.305 202.813 188.987 202.862H188.042L184.879 202.778C183.971 202.76 183.067 202.656 182.176 202.468V202.468Z" fill="#263238"/>
<path d="M188.619 221.387C188.619 221.387 188.304 221.387 187.766 221.204C187.015 220.916 186.304 220.518 185.654 220.022C184.576 219.2 183.663 218.154 182.971 216.946C182.279 215.737 181.821 214.392 181.625 212.989C181.465 211.573 181.578 210.137 181.957 208.77C182.336 207.403 182.974 206.134 183.829 205.042C184.335 204.382 184.927 203.804 185.588 203.326C186.06 202.989 186.349 202.862 186.375 202.904C185.605 203.669 184.882 204.487 184.21 205.352C183.442 206.412 182.877 207.624 182.548 208.919C182.219 210.215 182.133 211.567 182.294 212.898C182.455 214.229 182.86 215.513 183.486 216.675C184.113 217.838 184.947 218.856 185.942 219.671C186.8 220.302 187.694 220.875 188.619 221.387V221.387Z" fill="#263238"/>
<path d="M185.339 221.569C185.027 221.639 184.705 221.639 184.394 221.569C183.526 221.495 182.675 221.272 181.874 220.908C180.515 220.349 179.296 219.458 178.313 218.306C177.331 217.154 176.612 215.773 176.213 214.272C175.815 212.771 175.748 211.191 176.017 209.658C176.287 208.124 176.886 206.679 177.767 205.436C178.274 204.677 178.89 204.008 179.591 203.453C179.836 203.229 180.122 203.061 180.431 202.96C179.598 203.825 178.838 204.766 178.16 205.774C177.37 206.976 176.841 208.353 176.613 209.803C176.384 211.253 176.461 212.739 176.839 214.153C177.216 215.567 177.885 216.873 178.795 217.973C179.705 219.074 180.833 219.942 182.097 220.514C183.146 220.97 184.231 221.323 185.339 221.569V221.569Z" fill="#263238"/>
<path d="M175.536 212.173C175.124 213.142 174.655 214.082 174.132 214.986C173.108 216.885 171.717 219.502 169.998 222.68C166.481 229.165 161.573 238.153 156.048 247.872C150.523 257.591 145.431 266.467 141.612 272.768C139.723 275.919 138.161 278.394 137.059 280.181L135.746 282.15C135.606 282.388 135.443 282.609 135.261 282.811C135.353 282.548 135.481 282.302 135.641 282.079C135.943 281.531 136.337 280.856 136.822 280.026C137.898 278.155 139.447 275.609 141.192 272.487C144.88 266.115 149.906 257.282 155.431 247.492C160.956 237.702 165.93 228.911 169.552 222.413C171.336 219.276 172.793 216.787 173.869 214.846C174.368 213.916 174.925 213.023 175.536 212.173Z" fill="#263238"/>
<path d="M170.418 119.171C170.527 119.437 170.606 119.716 170.654 120.001L171.205 122.406C171.677 124.587 172.347 127.583 173.147 131.254C174.801 138.723 177.189 149.019 179.853 160.384C182.517 171.749 184.827 182.073 186.415 189.584C187.189 193.339 187.727 196.378 188.147 198.487C188.318 199.486 188.462 200.288 188.567 200.921C188.634 201.201 188.669 201.489 188.672 201.779C188.563 201.513 188.484 201.235 188.436 200.949C188.291 200.33 188.121 199.542 187.898 198.544C187.412 196.364 186.756 193.368 185.942 189.696C184.289 182.228 181.9 171.932 179.236 160.566C176.572 149.201 174.263 138.877 172.675 131.366C171.914 127.611 171.362 124.573 170.943 122.463C170.772 121.464 170.628 120.662 170.523 120.029C170.456 119.749 170.42 119.461 170.418 119.171Z" fill="#263238"/>
<path opacity="0.4" d="M140.93 386.32H172.478L173.62 407.179H140.628L140.93 386.32Z" fill="white"/>
<path opacity="0.4" d="M140.51 414.634H174.026L174.328 420.035L140.431 420.176L140.51 414.634Z" fill="white"/>
<g opacity="0.4">
<path d="M168.502 214.635C168.502 214.832 156.966 215.24 142.754 215.521C128.541 215.803 116.98 215.887 116.98 215.676C116.98 215.465 128.502 215.085 142.741 214.79C156.979 214.495 168.502 214.438 168.502 214.635Z" fill="white"/>
</g>
<path d="M329.733 366.15C329.589 366.29 299.55 332.716 262.713 291.166C225.876 249.616 196.06 215.816 196.192 215.676C196.323 215.535 226.375 249.11 263.212 290.674C300.048 332.238 329.917 366.009 329.733 366.15Z" fill="#263238"/>
<path d="M466.148 296.834H484.022C484.934 296.878 485.795 297.297 486.426 298.005C487.057 298.712 487.409 299.654 487.408 300.632L488.116 317.201C488.161 317.715 488.11 318.234 487.965 318.726C487.82 319.218 487.585 319.674 487.273 320.067C486.961 320.461 486.579 320.783 486.149 321.015C485.719 321.248 485.25 321.386 484.77 321.421L466.253 321.702L466.148 296.834Z" fill="#FF725E"/>
<path opacity="0.5" d="M466.148 296.834H484.022C484.934 296.878 485.795 297.297 486.426 298.005C487.057 298.712 487.409 299.654 487.408 300.632L488.116 317.201C488.161 317.715 488.11 318.234 487.965 318.726C487.82 319.218 487.585 319.674 487.273 320.067C486.961 320.461 486.579 320.783 486.149 321.015C485.719 321.248 485.25 321.386 484.77 321.421L466.253 321.702L466.148 296.834Z" fill="black"/>
<path d="M489.809 340.438C491.765 343.659 565.005 414.789 572.367 420.753C580.648 427.476 587 422.848 587 422.848L485.242 308.087L478.117 313.347L490.085 327.061C490.085 327.061 487.854 337.217 489.809 340.438Z" fill="#FF725E"/>
<path opacity="0.3" d="M572.367 420.753C573.501 421.66 574.689 422.487 575.924 423.228L571.645 418.291L490.085 327.118C490.085 327.118 487.854 337.217 489.809 340.438C491.765 343.659 565.005 414.789 572.367 420.753Z" fill="black"/>
<path d="M481.332 317.089C481.463 316.948 490.859 327.258 502.329 340.128C513.799 352.998 522.959 363.533 522.814 363.674C522.67 363.815 513.287 353.505 501.817 340.635C490.347 327.765 481.187 317.229 481.332 317.089Z" fill="#263238"/>
<path d="M447.211 321.688L443.17 592.634H477.605L462.736 321.688H447.211Z" fill="#FF725E"/>
<path opacity="0.5" d="M447.211 321.688L446.293 383.127L464.705 357.725L462.736 321.688H447.211Z" fill="black"/>
<path d="M427.527 301.659V318.833C427.527 319.579 427.803 320.295 428.295 320.822C428.788 321.35 429.455 321.646 430.151 321.646H466.122V296.834L430.02 298.804C429.34 298.84 428.7 299.158 428.235 299.691C427.77 300.224 427.516 300.929 427.527 301.659Z" fill="#FF725E"/>
<path d="M484.363 271.939C484.193 268.099 454.18 167.164 450.676 158.007C446.66 147.739 438.996 148.302 438.996 148.302L473.117 302.292L481.752 301.589L477.815 283.304C477.815 283.304 484.547 275.736 484.363 271.939Z" fill="#FF725E"/>
<path opacity="0.3" d="M450.65 158.035C450.095 156.638 449.45 155.285 448.721 153.984L450.112 160.538L477.854 283.303C477.854 283.303 484.521 275.778 484.337 271.938C484.153 268.098 454.232 167.163 450.65 158.035Z" fill="black"/>
<path d="M449.705 327.286C447.316 330.099 402.33 424.48 398.879 433.651C394.942 443.961 400.808 449.334 400.808 449.334L477.605 314.149L471.043 308.143L461.857 324.108C461.857 324.108 452.093 324.417 449.705 327.286Z" fill="#FF725E"/>
<path opacity="0.2" d="M398.879 433.65C398.35 435.056 397.911 436.499 397.567 437.969L400.887 432.258L461.752 324.107C461.752 324.107 452.08 324.417 449.692 327.286C447.303 330.156 402.33 424.48 398.879 433.65Z" fill="black"/>
<path d="M483.208 307.285C483.208 309.057 484.521 312.545 483.602 313.685C482.683 314.824 479.285 314.43 477.565 314.43C474.455 314.43 471.936 311.237 471.936 307.285C471.936 303.332 474.455 300.14 477.565 300.14C479.661 299.914 481.777 300.095 483.812 300.674C485.177 301.166 483.208 305.513 483.208 307.285Z" fill="#FF725E"/>
<path d="M487.395 307.285C487.395 311.237 484.875 314.43 481.765 314.43C478.655 314.43 476.135 311.237 476.135 307.285C476.135 303.333 478.655 300.14 481.765 300.14C484.875 300.14 487.395 303.347 487.395 307.285Z" fill="#FF725E"/>
<path opacity="0.5" d="M487.395 307.285C487.395 311.237 484.875 314.43 481.765 314.43C478.655 314.43 476.135 311.237 476.135 307.285C476.135 303.333 478.655 300.14 481.765 300.14C484.875 300.14 487.395 303.347 487.395 307.285Z" fill="black"/>
<path d="M476.384 300.14C477.067 299.996 477.762 299.935 478.458 299.957L480.833 299.887C481.279 299.887 481.765 299.802 482.316 299.887C482.883 299.958 483.437 300.124 483.956 300.379V300.379C485.025 300.98 485.929 301.87 486.578 302.96C487.227 304.051 487.599 305.304 487.657 306.596C487.751 307.711 487.629 308.835 487.3 309.897C486.97 310.96 486.439 311.938 485.741 312.771C485.191 313.441 484.499 313.959 483.722 314.28C482.945 314.601 482.107 314.715 481.279 314.613V314.613C480.03 314.662 478.779 314.601 477.539 314.43C478.761 314.205 480 314.102 481.24 314.121V314.121C481.982 314.165 482.724 314.024 483.407 313.709C484.09 313.394 484.696 312.914 485.177 312.307C485.794 311.536 486.261 310.642 486.552 309.676C486.842 308.71 486.951 307.692 486.87 306.68C486.817 305.513 486.49 304.378 485.919 303.382C485.348 302.386 484.551 301.561 483.602 300.984V300.984C483.147 300.746 482.66 300.585 482.159 300.506C481.686 300.421 481.214 300.506 480.741 300.506L478.366 300.421C477.698 300.409 477.033 300.314 476.384 300.14V300.14Z" fill="#263238"/>
<path d="M481.214 314.318C480.383 314.268 479.59 313.927 478.957 313.347C478.121 312.738 477.416 311.947 476.886 311.024C476.357 310.102 476.016 309.07 475.886 307.996C475.756 306.923 475.839 305.832 476.131 304.795C476.423 303.758 476.916 302.8 477.579 301.982C478.06 301.253 478.744 300.706 479.534 300.421C479.6 300.533 478.799 301.054 477.959 302.306C476.83 303.907 476.335 305.921 476.581 307.911C476.826 309.901 477.793 311.707 479.271 312.939C480.361 313.91 481.266 314.205 481.214 314.318Z" fill="#263238"/>
<path d="M478.76 314.459C477.868 314.64 476.946 314.501 476.135 314.065C475.101 313.65 474.172 312.98 473.423 312.109C472.675 311.238 472.128 310.191 471.827 309.052C471.525 307.914 471.478 306.715 471.688 305.553C471.899 304.39 472.361 303.298 473.038 302.362C474.048 300.956 475.059 300.477 475.085 300.548C474.493 301.208 473.941 301.908 473.432 302.643C472.859 303.541 472.478 304.562 472.315 305.634C472.152 306.707 472.211 307.805 472.487 308.85C472.764 309.896 473.252 310.863 473.916 311.684C474.581 312.505 475.405 313.159 476.332 313.601C477.123 313.942 477.934 314.229 478.76 314.459V314.459Z" fill="#263238"/>
<path d="M471.411 307.412C471.115 308.141 470.754 308.838 470.335 309.493L467.264 315.288C464.639 320.155 460.965 326.836 456.765 334.178C452.566 341.521 448.799 348.118 445.952 352.829C444.521 355.193 443.327 357.049 442.513 358.371C442.109 359.066 441.648 359.72 441.135 360.326C441.473 359.594 441.859 358.889 442.29 358.217L445.545 352.59L456.188 333.841L466.896 315.12L470.164 309.493C470.527 308.765 470.944 308.069 471.411 307.412V307.412Z" fill="#263238"/>
<path d="M467.579 237.759C467.838 238.544 468.044 239.347 468.196 240.164C468.576 241.852 469.075 244.088 469.678 246.803C470.991 252.5 472.776 260.151 474.731 268.633C476.686 277.114 478.458 284.893 479.586 290.519C480.151 293.332 480.597 295.625 480.899 297.2C481.081 298.013 481.2 298.841 481.253 299.676C480.994 298.891 480.788 298.087 480.636 297.27C480.269 295.583 479.757 293.346 479.153 290.631C477.841 284.935 476.069 277.283 474.101 268.802C472.132 260.32 470.387 252.542 469.245 246.915C468.681 244.102 468.248 241.81 467.933 240.234C467.751 239.421 467.632 238.593 467.579 237.759V237.759Z" fill="#263238"/>
<path opacity="0.4" d="M445.466 437.969H469.114L469.967 453.61H445.243L445.466 437.969Z" fill="white"/>
<path opacity="0.4" d="M445.151 459.194H470.282L470.505 463.245L445.099 463.357L445.151 459.194Z" fill="white"/>
<g opacity="0.4">
<path d="M466.148 309.269C466.148 309.465 457.5 309.803 446.844 310.014C436.188 310.225 427.527 310.253 427.527 310.014C427.527 309.775 436.162 309.48 446.831 309.255C457.5 309.029 466.148 309.058 466.148 309.269Z" fill="white"/>
</g>
<path d="M587 422.848C586.868 422.989 564.349 397.854 536.698 366.698C509.048 335.543 486.765 310.183 486.896 310.042C487.027 309.901 509.547 335.037 537.197 366.192C564.848 397.347 587.131 422.708 587 422.848Z" fill="#263238"/>
<path d="M577.196 592.635C577.196 592.832 448.051 593 288.762 593C129.473 593 0.301819 592.832 0.301819 592.635C0.301819 592.438 129.434 592.269 288.762 592.269C448.091 592.269 577.196 592.424 577.196 592.635Z" fill="#263238"/>
<path d="M219.065 571.803C220.63 575.179 221.989 578.661 223.133 582.226C224.487 585.705 225.627 589.276 226.545 592.916C223.633 586.062 221.134 579.015 219.065 571.817V571.803Z" fill="#263238"/>
<path d="M215.259 542.336C215.645 542.91 215.979 543.522 216.257 544.164C216.874 545.36 217.7 547.118 218.685 549.312C221.229 555.047 223.502 560.915 225.495 566.894C227.482 572.893 229.182 578.996 230.587 585.18C231.112 587.557 231.506 589.484 231.742 590.806C231.895 591.495 231.996 592.196 232.044 592.902C231.793 592.249 231.604 591.57 231.48 590.876L230.167 585.25C228.986 580.552 227.228 574.11 224.918 567.12C222.608 560.129 220.167 553.926 218.356 549.495L216.126 544.249C215.789 543.637 215.5 542.997 215.259 542.336V542.336Z" fill="#263238"/>
<path d="M384.693 573.139C385.445 573.83 386.1 574.636 386.635 575.53C388.032 577.6 389.233 579.815 390.218 582.141C391.205 584.467 391.97 586.894 392.501 589.385C392.784 590.403 392.926 591.46 392.921 592.522C391.968 589.107 390.855 585.746 389.588 582.451C388.108 579.258 386.474 576.15 384.693 573.139V573.139Z" fill="#263238"/>
<path d="M382.672 545.796C383.107 546.275 383.498 546.798 383.84 547.357C384.561 548.384 385.546 549.931 386.701 551.872C392.696 562.092 396.957 573.368 399.286 585.18C399.719 587.444 400.007 589.273 400.165 590.553C400.287 591.21 400.344 591.88 400.336 592.55C400.139 591.918 399.994 591.268 399.902 590.609C399.666 589.343 399.299 587.529 398.813 585.292C396.262 573.628 392.057 562.452 386.346 552.154C385.244 550.184 384.325 548.609 383.722 547.526C383.321 546.986 382.97 546.407 382.672 545.796V545.796Z" fill="#263238"/>
<path d="M386.346 529.071C386.556 529.071 387.396 533.713 389.574 539.072C391.753 544.431 394.325 548.341 394.141 548.468C393.428 547.749 392.814 546.925 392.317 546.02C391.011 543.914 389.883 541.688 388.945 539.367C388.014 537.047 387.28 534.642 386.753 532.18C386.469 531.172 386.332 530.124 386.346 529.071Z" fill="#263238"/>
<path d="M518.72 577.865C519.548 578.308 520.313 578.876 520.99 579.553C522.719 581.059 524.33 582.715 525.806 584.504C527.28 586.291 528.618 588.2 529.809 590.215C530.364 591.013 530.806 591.895 531.121 592.831C530.937 592.958 528.759 589.104 525.334 584.982C521.908 580.861 518.588 578.048 518.72 577.865Z" fill="#263238"/>
<path d="M520.845 558.455C520.845 558.455 521.239 558.806 521.856 559.552C522.473 560.297 523.326 561.408 524.336 562.815C529.576 570.202 533.601 578.493 536.239 587.331C536.751 589.019 537.105 590.412 537.315 591.382C537.454 591.872 537.542 592.377 537.578 592.887C537.473 592.887 536.895 590.82 535.793 587.5C532.918 578.832 528.944 570.63 523.982 563.124C522.04 560.171 520.767 558.455 520.845 558.455Z" fill="#263238"/>
<path d="M92.7152 539.832C93.1482 540.4 93.5346 541.007 93.87 541.646C94.5787 542.828 95.5367 544.6 96.6522 546.837C102.423 558.536 106.066 571.304 107.387 584.462C107.636 586.98 107.754 589.02 107.794 590.426C107.842 591.161 107.842 591.899 107.794 592.634C107.64 591.919 107.552 591.188 107.531 590.454C107.426 589.048 107.229 587.022 106.914 584.518C106.105 578.012 104.788 571.59 102.978 565.319C101.183 559.032 98.9049 552.916 96.1666 547.034C95.1167 544.783 94.2244 542.969 93.542 541.745C93.2176 541.133 92.941 540.493 92.7152 539.832V539.832Z" fill="#263238"/>
<path d="M84.0538 557.048C84.5277 557.305 84.9688 557.626 85.3661 558.004C86.4851 558.938 87.5542 559.938 88.5682 561C91.9479 564.485 94.8823 568.435 97.2951 572.745C99.7146 577.077 101.594 581.73 102.886 586.586C103.275 588.049 103.595 589.532 103.844 591.03C103.964 591.575 104.03 592.131 104.04 592.69C103.909 592.69 103.489 590.383 102.413 586.74C99.6132 577.22 94.7522 568.545 88.227 561.422C85.6942 558.651 83.9751 557.16 84.0538 557.048Z" fill="#263238"/>
<path d="M84.8938 576.74C85.7391 577.197 86.5173 577.785 87.2035 578.484C88.9448 580.08 90.54 581.851 91.9672 583.773C93.4002 585.672 94.6572 587.716 95.7205 589.877C96.2175 590.749 96.5849 591.698 96.8097 592.69C96.626 592.789 94.7493 588.625 91.4292 584.251C88.109 579.876 84.7495 576.951 84.8938 576.74Z" fill="#263238"/>
<path d="M114.526 578.835C113.925 581.04 113.443 583.28 113.082 585.545C112.961 587.836 112.961 590.132 113.082 592.423C112.39 590.181 112.161 587.804 112.413 585.457C112.665 583.111 113.39 580.851 114.539 578.835H114.526Z" fill="#263238"/>
<path d="M239.655 562.463C240.458 562.395 241.266 562.501 242.03 562.774C242.795 563.047 243.5 563.482 244.104 564.053C245.312 565.215 246.255 566.658 246.86 568.273C247.987 571.534 248.299 575.054 247.765 578.484C244.367 577.781 241.86 574.433 240.679 572.633C238.829 569.82 237.07 563.49 239.655 562.477" fill="#FF725E"/>
<path d="M252.962 581.578C252.363 580.854 251.953 579.973 251.774 579.025C251.594 578.077 251.651 577.094 251.939 576.177C252.237 575.254 252.705 574.404 253.316 573.679C253.927 572.954 254.668 572.369 255.495 571.957C255.85 571.726 256.248 571.583 256.661 571.536C257.074 571.49 257.492 571.543 257.883 571.69C258.228 571.889 258.517 572.182 258.72 572.541C258.924 572.9 259.033 573.31 259.038 573.73C259.031 574.566 258.818 575.386 258.422 576.107C257.188 578.638 255.548 580.847 252.962 581.508" fill="#FF725E"/>
<path d="M254.839 592.212C254.74 592.005 254.661 591.788 254.603 591.565C254.445 591.101 254.248 590.51 253.999 589.806C253.293 587.873 252.88 585.831 252.778 583.758C252.713 581.667 253.166 579.595 254.091 577.752C254.38 577.204 254.727 576.694 255.128 576.233L255.469 575.867C255.507 575.823 255.551 575.785 255.6 575.755C255.101 576.402 254.661 577.099 254.288 577.837C253.423 579.669 253.003 581.706 253.067 583.758C253.177 585.805 253.566 587.824 254.222 589.75C254.445 590.496 254.629 591.157 254.747 591.537C254.799 591.758 254.829 591.984 254.839 592.212V592.212Z" fill="#263238"/>
<path d="M241.388 567.147L241.545 567.386L241.991 568.103C242.372 568.736 242.91 569.637 243.566 570.762C244.878 573.026 246.663 576.163 248.553 579.679C250.443 583.196 252.083 586.431 253.238 588.78C253.815 589.961 254.288 590.918 254.55 591.593L254.904 592.367L255.023 592.648C254.959 592.572 254.906 592.487 254.865 592.395C254.76 592.198 254.642 591.945 254.471 591.649C254.13 590.96 253.645 590.032 253.067 588.836C251.873 586.501 250.206 583.294 248.317 579.778C246.427 576.262 244.668 573.111 243.395 570.832L241.873 568.132C241.716 567.822 241.571 567.583 241.466 567.386C241.361 567.189 241.374 567.161 241.388 567.147Z" fill="#263238"/>
<path d="M250.009 585.756C248.793 584.187 247.246 582.951 245.496 582.148C243.746 581.346 241.843 581.002 239.944 581.143C238.973 581.227 237.857 581.593 237.569 582.549C237.28 583.506 237.989 584.532 238.75 585.179C240.352 586.498 242.282 587.279 244.297 587.424C246.313 587.569 248.323 587.072 250.075 585.995" fill="#FF725E"/>
<path d="M241.781 583.646C241.979 583.592 242.181 583.564 242.385 583.562H243.094C243.369 583.562 243.684 583.562 244.025 583.562C244.408 583.584 244.79 583.631 245.167 583.703C245.61 583.77 246.049 583.869 246.479 583.998C248.444 584.541 250.249 585.605 251.729 587.092C252.051 587.409 252.353 587.747 252.634 588.105C252.884 588.409 253.116 588.728 253.33 589.062C253.516 589.332 253.687 589.614 253.842 589.906C253.975 590.119 254.089 590.345 254.183 590.581C254.282 590.77 254.365 590.967 254.432 591.172C254.432 591.172 254.025 590.356 253.212 589.16C253.002 588.879 252.779 588.555 252.49 588.232C252.201 587.908 251.912 587.585 251.584 587.247C250.853 586.542 250.052 585.924 249.196 585.405C248.326 584.908 247.412 584.508 246.466 584.209C246.02 584.082 245.613 583.97 245.154 583.9C244.695 583.829 244.38 583.773 244.039 583.731C242.648 583.604 241.781 583.689 241.781 583.646Z" fill="#263238"/>
<path d="M434.784 244.383C432.456 245.736 429.76 246.176 427.162 245.63C424.563 245.083 422.224 243.583 420.545 241.387C422.946 240.434 425.546 240.209 428.058 240.738C430.57 241.266 432.898 242.528 434.784 244.383" fill="#FF725E"/>
<path d="M231.65 178.289C229.308 180.997 226.16 182.748 222.746 183.24C219.331 183.733 215.864 182.937 212.937 180.99C215.522 178.737 218.637 177.293 221.939 176.816C225.241 176.34 228.601 176.849 231.65 178.289Z" fill="#FF725E"/>
<path d="M11.9027 202.074C10.7647 204.254 8.95473 205.941 6.78305 206.847C4.61137 207.753 2.2133 207.821 0 207.039C1.36353 205.115 3.1971 203.633 5.29781 202.757C7.39852 201.881 9.68447 201.644 11.9027 202.074" fill="#FF725E"/>
<path d="M109.447 125.585C106.188 126.782 102.642 126.727 99.4167 125.428C96.1915 124.129 93.4882 121.669 91.7704 118.468C95.0426 117.793 98.425 118.101 101.544 119.357C104.664 120.613 107.399 122.768 109.447 125.585Z" fill="#FF725E"/>
<path d="M244.078 175.293C241.938 174.802 240.025 173.526 238.669 171.685C237.313 169.844 236.599 167.553 236.65 165.208C238.633 165.995 240.376 167.353 241.686 169.132C242.996 170.911 243.824 173.043 244.078 175.293" fill="#FF725E"/>
<g opacity="0.5">
<path d="M244.078 175.293C241.938 174.802 240.025 173.526 238.669 171.685C237.313 169.844 236.599 167.553 236.65 165.208C238.633 165.995 240.376 167.353 241.686 169.132C242.996 170.911 243.824 173.043 244.078 175.293" fill="black"/>
</g>
<path d="M409.968 221.344C406.483 222.195 402.83 221.722 399.634 220.005C396.438 218.289 393.898 215.436 392.448 211.934C395.894 211.617 399.355 212.328 402.447 213.989C405.539 215.65 408.142 218.195 409.968 221.344" fill="#FF725E"/>
<g opacity="0.5">
<path d="M409.968 221.344C406.483 222.195 402.83 221.722 399.634 220.005C396.438 218.289 393.898 215.436 392.448 211.934C395.894 211.617 399.355 212.328 402.447 213.989C405.539 215.65 408.142 218.195 409.968 221.344" fill="black"/>
</g>
<path d="M161.048 177.53C156.087 178.75 150.885 178.081 146.335 175.638C141.785 173.194 138.171 169.128 136.113 164.139C145.68 162.901 156.559 168.935 161.048 177.53Z" fill="#FF725E"/>
<g opacity="0.5">
<path d="M161.047 177.53C156.087 178.75 150.885 178.081 146.335 175.638C141.785 173.194 138.171 169.128 136.113 164.139C145.68 162.901 156.559 168.935 161.047 177.53Z" fill="black"/>
</g>
<path d="M348.709 194.83C347.033 196.338 344.921 197.176 342.733 197.199C340.545 197.222 338.417 196.429 336.714 194.957C338.508 193.751 340.578 193.101 342.695 193.079C344.812 193.056 346.893 193.662 348.709 194.83" fill="#FF725E"/>
<path d="M301.413 174.956C300.097 176.247 298.403 177.006 296.621 177.104C294.839 177.202 293.081 176.631 291.649 175.49C293.073 174.446 294.738 173.844 296.461 173.75C298.184 173.656 299.897 174.073 301.413 174.956" fill="#FF725E"/>
<g opacity="0.5">
<path d="M301.413 174.956C300.097 176.247 298.403 177.007 296.621 177.104C294.839 177.202 293.081 176.631 291.649 175.491C293.073 174.447 294.738 173.845 296.461 173.75C298.184 173.656 299.897 174.073 301.413 174.956" fill="white"/>
</g>
<path d="M32.9523 143.969C30.8022 147.592 27.5429 150.301 23.7334 151.63C19.9239 152.96 15.8015 152.827 12.0733 151.255C14.5872 148.094 17.8683 145.74 21.5534 144.454C25.2385 143.168 29.1837 143 32.9523 143.969" fill="#FF725E"/>
<g opacity="0.5">
<path d="M32.9523 143.969C30.8023 147.592 27.543 150.301 23.7335 151.63C19.924 152.959 15.8016 152.827 12.0734 151.255C14.5872 148.093 17.8684 145.739 21.5534 144.453C25.2385 143.167 29.1838 143 32.9523 143.969" fill="white"/>
</g>
<path d="M420.742 215.155C418.998 214.737 417.446 213.678 416.353 212.163C415.261 210.647 414.696 208.77 414.758 206.856C416.372 207.514 417.785 208.638 418.841 210.102C419.897 211.566 420.555 213.315 420.742 215.155Z" fill="#FF725E"/>
<g opacity="0.5">
<path d="M420.742 215.155C418.998 214.737 417.446 213.678 416.353 212.163C415.261 210.647 414.696 208.77 414.758 206.856C416.372 207.514 417.785 208.638 418.841 210.102C419.897 211.566 420.555 213.315 420.742 215.155Z" fill="white"/>
</g>
<path d="M61.4164 125.333C61.4714 125.468 61.511 125.609 61.5345 125.755L61.6526 126.275L61.9282 126.964C62.6404 128.418 63.827 129.539 65.2615 130.115C66.2792 130.568 67.3752 130.784 68.4767 130.748C69.7775 130.741 71.0455 130.309 72.1118 129.51C73.3399 128.433 74.2502 126.998 74.7323 125.377C75.2145 123.757 75.2478 122.022 74.8283 120.381C74.4296 118.449 73.5182 116.68 72.2036 115.29C70.7283 113.814 68.9188 112.776 66.9544 112.28C64.799 111.727 62.5581 111.676 60.3827 112.13C58.2072 112.583 56.1478 113.531 54.343 114.91C52.3808 116.37 50.8069 118.353 49.7761 120.663C48.7376 123.09 48.5512 125.837 49.2512 128.399C50.0191 131.044 51.4543 133.409 53.3981 135.235C55.3843 137.164 57.7403 138.604 60.3009 139.454C65.5502 141.213 70.9307 141.185 76.0487 141.339C81.1668 141.494 86.2192 141.466 90.9698 141.466C100.484 141.466 109.054 141.311 116.245 141.199L133.305 140.889L137.951 140.819H139.145C139.284 140.798 139.426 140.798 139.565 140.819H139.158L137.951 140.903L133.318 141.1C129.303 141.269 123.476 141.452 116.258 141.649C109.04 141.846 100.51 142 90.9698 142.071C86.2192 142.071 81.2193 142.071 76.0356 141.986C70.852 141.902 65.4058 141.888 60.0647 140.087C54.7236 138.287 50.0911 134.138 48.5819 128.596C47.8351 125.875 48.0356 122.956 49.1462 120.381C50.2394 117.963 51.8931 115.885 53.9493 114.347C55.8334 112.927 57.9792 111.955 60.2426 111.497C62.506 111.038 64.8347 111.104 67.0725 111.689C69.1111 112.238 70.9827 113.343 72.5055 114.896C73.9124 116.356 74.8927 118.222 75.327 120.269C75.7489 122.002 75.6933 123.829 75.167 125.529C74.6406 127.229 73.666 128.729 72.3611 129.848C71.2231 130.674 69.8776 131.111 68.5029 131.099C67.3616 131.111 66.2307 130.867 65.1827 130.382C63.7085 129.754 62.5091 128.554 61.8232 127.02L61.587 126.303L61.4951 125.769C61.4475 125.629 61.4209 125.481 61.4164 125.333V125.333Z" fill="#263238"/>
<path d="M48.5425 151.959C48.5425 151.762 67.125 151.34 90.038 151.031C112.951 150.721 131.56 150.623 131.56 150.82C131.56 151.017 112.977 151.453 90.0511 151.762C67.125 152.071 48.5425 152.226 48.5425 151.959Z" fill="#263238"/>
<path d="M28.5298 177.909H28.9235C29.3098 177.918 29.6935 177.979 30.0652 178.092C31.522 178.531 32.8096 179.457 33.7397 180.737C34.4938 181.729 35.0515 182.876 35.3786 184.106C35.7058 185.337 35.7956 186.627 35.6425 187.896C35.4131 189.488 34.7248 190.964 33.674 192.116C32.5017 193.414 31.0233 194.347 29.3959 194.816C27.6032 195.33 25.7162 195.33 23.9235 194.816C21.9719 194.251 20.239 193.034 18.9761 191.342C17.6426 189.445 16.7986 187.204 16.5291 184.846C16.2595 182.488 16.5739 180.096 17.4407 177.909C19.2911 173.268 23.3067 169.737 27.8605 167.613C30.1848 166.507 32.6135 165.673 35.1045 165.124C37.6241 164.646 40.1831 164.083 42.7947 163.717C53.2276 162.311 63.2406 161.734 72.3349 161.368C81.4293 161.003 89.6181 160.946 96.4947 160.946C103.371 160.946 108.949 161.017 112.794 161.101L117.216 161.242H118.371C118.502 161.232 118.634 161.232 118.765 161.242C118.634 161.26 118.502 161.26 118.371 161.242H112.794H96.4947C89.6181 161.326 81.4424 161.467 72.348 161.832C63.2537 162.198 53.2801 162.775 42.8865 164.224C40.2619 164.547 37.7554 165.096 35.2488 165.63C32.7799 166.205 30.3772 167.068 28.0836 168.204C23.6217 170.272 19.7504 173.69 17.9656 178.05C17.1357 180.127 16.8286 182.4 17.075 184.644C17.3214 186.887 18.1127 189.022 19.3698 190.836C20.5389 192.452 22.1563 193.629 23.9892 194.197C25.7076 194.699 27.52 194.699 29.2384 194.197C30.7773 193.82 32.1922 193.004 33.3328 191.834C34.3382 190.747 35.0032 189.351 35.2357 187.84C35.3963 186.623 35.3256 185.384 35.0279 184.197C34.7302 183.01 34.2117 181.9 33.5035 180.934C32.6249 179.675 31.4061 178.737 30.0127 178.247C29.6487 178.127 29.2754 178.042 28.8972 177.994C28.772 177.981 28.6487 177.953 28.5298 177.909Z" fill="#263238"/>
<path d="M264.917 170.483C264.969 170.598 265.005 170.722 265.022 170.849L265.127 171.299L265.377 171.889C265.987 173.149 267.011 174.121 268.251 174.618C269.135 174.996 270.081 175.177 271.033 175.153C272.153 175.142 273.243 174.764 274.156 174.07C275.213 173.141 275.995 171.904 276.407 170.508C276.82 169.112 276.845 167.618 276.479 166.207C276.139 164.545 275.354 163.025 274.222 161.833C272.965 160.565 271.423 159.669 269.747 159.23C267.886 158.762 265.954 158.723 264.079 159.115C262.203 159.508 260.427 160.324 258.868 161.509C257.178 162.773 255.822 164.484 254.931 166.474C254.036 168.561 253.878 170.925 254.485 173.127C255.718 177.628 259.589 181.159 264.012 182.593C268.434 184.028 273.198 184.098 277.647 184.225C282.096 184.352 286.439 184.338 290.56 184.338C298.788 184.338 306.19 184.211 312.41 184.112L327.161 183.859H331.163H332.2C332.322 183.841 332.445 183.841 332.567 183.859C332.45 183.876 332.331 183.876 332.213 183.859L331.163 183.93L327.161 184.127C323.683 184.267 318.644 184.436 312.423 184.605C306.203 184.774 298.788 184.928 290.56 184.985C286.439 184.985 282.122 184.985 277.634 184.914C273.146 184.844 268.448 184.83 263.802 183.269C259.156 181.707 255.154 178.106 253.841 173.296C253.198 170.928 253.375 168.39 254.34 166.151C255.278 164.052 256.712 162.253 258.5 160.932C260.132 159.697 261.992 158.852 263.955 158.454C265.918 158.056 267.938 158.114 269.878 158.626C271.65 159.108 273.274 160.077 274.589 161.439C275.789 162.717 276.611 164.346 276.951 166.123C277.319 167.629 277.267 169.219 276.8 170.694C276.334 172.169 275.474 173.465 274.327 174.421C273.343 175.145 272.174 175.524 270.98 175.504C269.992 175.527 269.01 175.316 268.106 174.885C266.82 174.348 265.777 173.3 265.193 171.96L264.983 171.355L264.904 170.877C264.89 170.746 264.894 170.613 264.917 170.483V170.483Z" fill="#263238"/>
<path d="M253.802 193.579C253.802 193.368 269.878 192.988 289.707 192.721C309.536 192.454 325.625 192.383 325.625 192.594C325.625 192.805 309.549 193.171 289.72 193.452C269.891 193.734 253.802 193.776 253.802 193.579Z" fill="#263238"/>
</svg>
